<svg xmlns="http://www.w3.org/2000/svg" xmlns:xlink="http://www.w3.org/1999/xlink" viewBox="0 0 308.1 82.85"><defs><style>.cls-1{fill:url(#Unbenannter_Verlauf_21);}.cls-2{fill:url(#Unbenannter_Verlauf_21-2);}.cls-3{fill:url(#Unbenannter_Verlauf_21-3);}</style><linearGradient id="Unbenannter_Verlauf_21" y1="41.43" x2="47.14" y2="41.43" gradientUnits="userSpaceOnUse"><stop offset="0" stop-color="#aa0c54"/><stop offset="1" stop-color="#cd1543"/></linearGradient><linearGradient id="Unbenannter_Verlauf_21-2" x1="19.7" y1="42.92" x2="30.59" y2="42.92" xlink:href="#Unbenannter_Verlauf_21"/><linearGradient id="Unbenannter_Verlauf_21-3" x1="23.13" y1="12.75" x2="27.51" y2="12.75" xlink:href="#Unbenannter_Verlauf_21"/></defs><g id="Ebene_2" data-name="Ebene 2"><g id="Ebene_1-2" data-name="Ebene 1"><path class="cls-1" d="M37.78,11.72h0a12.63,12.63,0,0,0-24.2-4.08c0,.06-.06.12-.08.18L11.1,7.25a11.63,11.63,0,0,0-11,3.21L0,10.52H0l4.2,2a11.38,11.38,0,0,1,6.37,8.13,8,8,0,0,0,5.1-7.37V13a9.45,9.45,0,1,1,9.75,9.55h-.31a22,22,0,0,0-22,22c0,19,22,38.29,22,38.29s22-19.32,22-38.29C47.14,27.43,37.78,30.55,37.78,11.72ZM25.14,66.26c-4.21-4.32-12.6-14.05-12.6-23.19a12.61,12.61,0,0,1,25.21,0c0,9.14-8.39,18.87-12.61,23.19Z"/><path class="cls-2" d="M25.14,37.48a5.44,5.44,0,1,0,5.45,5.44A5.45,5.45,0,0,0,25.14,37.48Z"/><circle class="cls-3" cx="25.32" cy="12.75" r="2.19"/><path d="M62,35.28C62,27.62,67,22,73.72,22a9,9,0,0,1,7.66,3.71h.44V22.65H87.5V42a1,1,0,0,0,1.16,1.11h1.11v4.82H85.48a3.46,3.46,0,0,1-3.62-3.19h-.43c-1,1.55-3.18,3.81-7.57,3.81C67.07,48.53,62,42.94,62,35.28Zm19.95,0c0-5-3.23-7.86-7.08-7.86-4,0-7.09,3.18-7.09,7.86S70.87,43,74.88,43C79.16,43,81.91,39.62,81.91,35.33Z"/><path d="M94.11,22.65h5.63v3.71h.39A7.5,7.5,0,0,1,106.78,22h1.88v5.68h-2.51c-4.14,0-6.36,2.94-6.36,7.71V47.91H94.11Z"/><path d="M110.3,35.33c0-8,5.83-13.3,12.63-13.3,7.71,0,12.38,5.59,12.38,13.1v1.59H116.18c0,4.25,2.79,6.94,6.94,6.94a6.41,6.41,0,0,0,6.36-4.24l5.21,1.26c-1.64,5.25-6.27,7.85-11.52,7.85C115.46,48.53,110.3,43,110.3,35.33Zm19.23-2.75c-.29-3.42-3.13-5.59-6.6-5.59a6.54,6.54,0,0,0-6.7,5.59Z"/><path d="M138.21,35.28c0-7.66,5-13.25,11.75-13.25a9,9,0,0,1,7.67,3.71h.43V22.65h5.69V42a1,1,0,0,0,1.16,1.11H166v4.82h-4.29a3.45,3.45,0,0,1-3.61-3.19h-.43c-1,1.55-3.18,3.81-7.57,3.81C143.31,48.53,138.21,42.94,138.21,35.28Zm19.95,0c0-5-3.23-7.86-7.09-7.86-4,0-7.08,3.18-7.08,7.86S147.12,43,151.12,43C155.41,43,158.16,39.62,158.16,35.33Z"/><path d="M174.59,43.62h-.24v4.29h-2.89v-35h3.09V27.28h.24a10,10,0,0,1,8.86-5c7.28,0,12.1,5.35,12.1,13.11s-5,13.11-12.24,13.11A10.22,10.22,0,0,1,174.59,43.62Zm18-8.2c0-6.21-3.9-10.31-9.11-10.31s-9.06,4.19-9.06,10.31c0,5.74,3.47,10.32,9,10.32C188.57,45.74,192.57,41.79,192.57,35.42Z"/><path d="M201.82,38.41V22.94h3.09V38.17c0,4.58,2.94,7.52,7,7.52a7.52,7.52,0,0,0,7.56-7.81V22.94h3.09v25h-3.09V44h-.24a8.6,8.6,0,0,1-8,4.58C205.29,48.53,201.82,44.1,201.82,38.41Z"/><path d="M232.91,40.92V25.5h-4.82V22.94h5.06V15.57H236v7.37H244V25.5H236V40.87c0,3,1.25,4.34,4.28,4.34h3.28v2.7h-3.32C235.75,47.91,232.91,45.88,232.91,40.92Z"/><path d="M249.25,45.3h5.2V15.49h-5.2v-2.6h8.29V45.3h5.16v2.61H249.25Z"/><path d="M265.64,35.52c0-8,5.15-13.21,11.95-13.21,7.42,0,11.76,5.16,11.76,12.68v1.35H268.82c.09,6.07,3.61,9.4,9.06,9.4a8.24,8.24,0,0,0,8.19-6l3,.72a11.2,11.2,0,0,1-11.23,8.05C270.31,48.53,265.64,43.28,265.64,35.52Zm20.58-1.83c-.25-5.78-4.15-8.63-8.63-8.63s-8.39,3.33-8.73,8.63Z"/><path d="M295.9,22.94h3v4.34h.24a7.75,7.75,0,0,1,7.08-5h1.84V25.4H306c-4.53,0-7,3.66-7,9V47.91H295.9Z"/><path d="M172.13,59.16H173v1.21H173A2.89,2.89,0,0,1,175.53,59a3.42,3.42,0,0,1,3.45,3.7,3.38,3.38,0,0,1-3.41,3.7,2.78,2.78,0,0,1-2.5-1.4H173v4.35h-.87Zm6,3.52a2.58,2.58,0,1,0-2.57,2.91A2.63,2.63,0,0,0,178.08,62.68Z"/><path d="M180.29,62.68a3.66,3.66,0,1,1,3.65,3.7A3.59,3.59,0,0,1,180.29,62.68Zm6.41,0a2.76,2.76,0,1,0-2.76,2.91A2.74,2.74,0,0,0,186.7,62.68Z"/><path d="M188.5,59.16h.95l1.9,6.22h.07l1.89-6.22h1.25l1.86,6.22h.07l1.91-6.22h1l-2.34,7h-1.2L194,60h-.08L192,66.2h-1.2Z"/><path d="M200.2,62.71A3.41,3.41,0,0,1,203.57,59c2.09,0,3.32,1.46,3.32,3.58v.38H201.1a2.4,2.4,0,0,0,2.55,2.65A2.33,2.33,0,0,0,206,63.9l.84.21a3.15,3.15,0,0,1-3.16,2.27A3.34,3.34,0,0,1,200.2,62.71Zm5.8-.52a2.34,2.34,0,0,0-2.43-2.43,2.45,2.45,0,0,0-2.46,2.43Z"/><path d="M208.73,59.16h.86v1.22h.07a2.18,2.18,0,0,1,2-1.4h.51v.87h-.58c-1.28,0-2,1-2,2.53V66.2h-.87Z"/><path d="M213.07,62.71A3.41,3.41,0,0,1,216.44,59c2.09,0,3.32,1.46,3.32,3.58v.38H214a2.41,2.41,0,0,0,2.55,2.65,2.32,2.32,0,0,0,2.31-1.69l.85.21a3.17,3.17,0,0,1-3.17,2.27A3.34,3.34,0,0,1,213.07,62.71Zm5.8-.52a2.34,2.34,0,0,0-2.43-2.43A2.45,2.45,0,0,0,214,62.19Z"/><path d="M221.06,62.68a3.38,3.38,0,0,1,3.4-3.7,2.86,2.86,0,0,1,2.51,1.4H227V56h.87V66.2h-.83V65H227a2.84,2.84,0,0,1-2.5,1.39A3.41,3.41,0,0,1,221.06,62.68Zm6,0a2.58,2.58,0,1,0-2.55,2.91A2.66,2.66,0,0,0,227.08,62.68Z"/><path d="M234.86,65h-.07V66.2H234V56h.87v4.37h.07a2.84,2.84,0,0,1,2.5-1.4,3.38,3.38,0,0,1,3.41,3.7,3.42,3.42,0,0,1-3.45,3.7A2.85,2.85,0,0,1,234.86,65Zm5.07-2.31a2.59,2.59,0,1,0-2.59,2.91A2.64,2.64,0,0,0,239.93,62.68Z"/><path d="M242.09,68.52h.71a1.31,1.31,0,0,0,1.33-1l.53-1.37h-.26l-2.68-7h1l2.25,6.2H245l2.29-6.2h1L244.85,68a2,2,0,0,1-2.1,1.31h-.66Z"/><path d="M253.83,56.69h.88v4.16h1.38l3.07-4.16h1.06l-3.38,4.54,3.54,5h-1.1l-3.17-4.53h-1.4V66.2h-.88Z"/><path d="M261.69,63.52V59.16h.87v4.29a2,2,0,0,0,2,2.12,2.12,2.12,0,0,0,2.14-2.2V59.16h.87v7h-.87V65.09h-.07a2.43,2.43,0,0,1-2.26,1.29A2.62,2.62,0,0,1,261.69,63.52Z"/><path d="M269.67,65.44h.91v-8h-.91v-.76h3.43a4.42,4.42,0,0,1,4.72,4.75c0,3-1.71,4.76-4.72,4.76h-3.43Zm3.43,0c2.34,0,3.78-1.48,3.78-4s-1.41-3.95-3.78-3.95h-1.63v7.92Z"/><path d="M280.61,59.88h-1.36v-.72h2.23v7h-.87Zm-.26-2.77a.69.69,0,1,1,1.37,0,.69.69,0,1,1-1.37,0Z"/><path d="M284,65.44h.91v-8H284v-.76h3.88c1.77,0,2.85,1,2.85,2.38a2.28,2.28,0,0,1-1.3,2.12v.08a2.26,2.26,0,0,1,1.64,2.28c0,1.69-1.26,2.65-3,2.65H284Zm3.86-4.55a1.74,1.74,0,0,0,2-1.76c0-1-.76-1.65-1.93-1.65h-2.07v3.41Zm.08,4.52c1.22,0,2.2-.54,2.2-1.87s-1.07-1.89-2.31-1.89h-2v3.76Z"/><path d="M299.91,65.41v.79h-.59a.86.86,0,0,1-.95-1V65h-.07a2.84,2.84,0,0,1-2.5,1.39,3.71,3.71,0,0,1-.05-7.4,2.86,2.86,0,0,1,2.51,1.4h.07V59.16h.87v5.91c0,.23.14.34.37.34Zm-1.54-2.73a2.58,2.58,0,1,0-2.55,2.91A2.66,2.66,0,0,0,298.37,62.68Z"/></g></g></svg>