<?xml version="1.0" encoding="UTF-8"?>
<svg id="Horizontal" xmlns="http://www.w3.org/2000/svg"
    viewBox="0 0 731.34 209.76">
    <defs>
        <style>
            .cls-1 {
                fill: #fffffd;
            }

            .cls-1,
            .cls-2,
            .cls-3 {
                stroke-width: 0px;
            }

            .cls-2 {
                fill: #1d1d1b;
            }

            .cls-3 {
                fill: #c21950;
            }
        </style>
    </defs>
    <path class="cls-2"
        d="M224.98,124.77h-30.29l-5.1,14.99h-12.49l24.49-69.97h16.99l24.29,69.97h-12.79l-5.1-14.99ZM221.18,113.67l-10.9-31.99h-1l-10.9,31.99h22.79Z" />
    <path class="cls-2"
        d="M249.47,87.38h11.7v7.7h.8c2-4.4,7.1-9,13.79-9h3.9v11.79h-5.2c-8.6,0-13.2,6.1-13.2,15.99v25.89h-11.79v-52.38Z" />
    <path class="cls-2"
        d="M284.05,113.67c0-16.49,12.09-27.59,26.19-27.59,15.99,0,25.69,11.6,25.69,27.19v3.3h-39.68c.1,8.8,5.8,14.39,14.39,14.39,5.8,0,11.3-3,13.2-8.8l10.79,2.6c-3.4,10.9-12.99,16.29-23.89,16.29-15.99,0-26.69-11.4-26.69-27.39ZM323.94,107.98c-.6-7.1-6.5-11.6-13.69-11.6s-13.2,5.3-13.89,11.6h27.59Z" />
    <path class="cls-2"
        d="M343.42,113.57c0-15.89,10.4-27.49,24.39-27.49,8.8,0,13.59,4.5,15.89,7.7h.9v-6.4h11.79v40.08c0,1.4.8,2.3,2.4,2.3h2.3v10h-8.9c-4.7,0-7.1-3.2-7.5-6.6h-.9c-2,3.2-6.6,7.9-15.69,7.9-14.09,0-24.69-11.6-24.69-27.49ZM384.81,113.67c0-10.4-6.7-16.29-14.69-16.29-8.4,0-14.69,6.6-14.69,16.29s6.5,15.99,14.79,15.99c8.9,0,14.59-7.1,14.59-15.99Z" />
    <path class="cls-2"
        d="M415.59,132.87h6.6v-56.18h-6.6v-6.9h29.19c13.29,0,21.19,7.7,21.19,17.89,0,6.9-3.3,12.09-8.9,15.09v.6c4.7,1.6,11.3,6.6,11.3,16.49,0,12.6-9.8,19.89-21.59,19.89h-31.19v-6.9ZM444.48,100.08c7.9,0,13.2-4.7,13.2-11.79s-5.4-11.3-12.9-11.3h-14.49v23.09h14.19ZM445.38,132.67c8.3,0,14.59-4,14.59-12.99s-7.4-12.79-15.49-12.79h-14.19v25.79h15.09Z" />
    <path class="cls-2"
        d="M476.36,120.47v-32.69h7.9v32.39c0,8.3,6.1,13.69,13.39,13.69,8.2,0,14.59-6.3,14.59-14.89v-31.19h7.9v51.98h-7.9v-7.6h-.6c-2.2,4.7-7.8,8.9-15.89,8.9-12.09,0-19.39-9.1-19.39-20.59Z" />
    <path class="cls-2"
        d="M536.93,124.97v-30.49h-9.8v-6.7h10.3v-15.09h7.4v15.09h15.99v6.7h-15.99v30.39c0,5.6,2.3,8,7.8,8h7.5v6.9h-7.4c-9.5,0-15.79-4.3-15.79-14.79Z" />
    <path class="cls-2" d="M567.81,132.97h10.5v-61.38h-10.5v-6.8h18.39v68.17h10.5v6.8h-28.89v-6.8Z" />
    <path class="cls-2"
        d="M599.2,113.97c0-16.59,11.4-27.49,25.19-27.49,15.69,0,24.69,11,24.69,26.59v2.9h-41.78c.1,11.6,6.9,18.09,17.69,18.09,7.3,0,13.99-4.2,15.69-11.4l7.7,1.8c-2.9,9.7-11.5,16.59-23.49,16.59-15.79,0-25.69-11.1-25.69-27.09ZM640.98,109.57c-.5-10.79-8-15.99-16.59-15.99s-16.29,6.2-16.89,15.99h33.49Z" />
    <path class="cls-2"
        d="M658.07,87.78h7.8v8.7h.6c1.5-4.4,6.6-10,14.19-10h3.4v7.9h-4.7c-9.5,0-13.39,7.7-13.39,17.59v27.79h-7.9v-51.98Z" />
    <path class="cls-1"
        d="M141.01,75.98c-4.97-7.87-9.66-15.31-9.66-34.57l-.54-3.76c-2.69-14.14-15.21-24.77-29.9-24.77-11.13,0-21.27,6.06-26.73,15.92l-2.07-.5c-9.66-2.3-19.97.69-27.03,7.96l-3.56,3.83,13.63,6.33c5.94,2.76,10.07,8.04,11.34,14.48l.75,3.83c.29,4.97-1.37,9.93-4.77,13.74h0c-3.03,3.61-5.56,7.63-7.5,11.98-2.76,6.21-4.29,13.09-4.29,20.32,0,41.29,45.79,82,47.74,83.7l2.49,2.19,2.49-2.19c1.95-1.71,47.75-42.41,47.75-83.7,0-18.76-5.15-26.91-10.12-34.8" />
    <path class="cls-3"
        d="M100.89,157.21c-8.98-9.19-26.82-29.9-26.82-49.34,0-14.79,12.03-26.82,26.82-26.82s26.82,12.03,26.82,26.82c0,19.44-17.84,40.15-26.82,49.34,6.96,0-2.55,0-2.55,0h2.55M76.2,32.47c-.06.13-.12.25-.17.37l-5.03-1.2c-8.49-2.03-17.42.57-23.49,6.83-.04.04-.08.08-.12.12l.07.03,8.93,4.15c7.36,3.42,12.11,10,13.55,17.3,6.29-2.47,10.75-8.54,10.86-15.68,0-.08.01-.17.01-.25,0-.08-.01-.15-.01-.23.14-10.99,9.08-19.86,20.1-19.86s20.12,9.01,20.12,20.12-8.66,19.74-19.47,20.09c-.21,0-.43-.02-.64-.02-25.86,0-46.82,20.96-46.82,46.82,0,40.36,46.82,81.49,46.82,81.49,0,0,46.82-41.13,46.82-81.49,0-36.46-19.93-29.83-19.93-69.89h-.08c-1-13.94-12.61-24.95-26.81-24.95-11.08,0-20.57,6.71-24.7,16.27" />
    <path class="cls-3"
        d="M89.31,107.55c0,6.4,5.18,11.58,11.58,11.58s11.58-5.18,11.58-11.58-5.19-11.58-11.58-11.58-11.58,5.18-11.58,11.58" />
    <path class="cls-3"
        d="M96.6,43.34c0,2.57,2.09,4.66,4.66,4.66s4.66-2.09,4.66-4.66-2.09-4.66-4.66-4.66-4.66,2.09-4.66,4.66" />
</svg>