<?xml version="1.0" encoding="UTF-8" standalone="no"?>
<svg
   viewBox="0 0 310.82 86.39"
   version="1.1"
   id="svg354"
   xmlns:xlink="http://www.w3.org/1999/xlink"
   xmlns="http://www.w3.org/2000/svg"
   xmlns:svg="http://www.w3.org/2000/svg">
  <defs
     id="defs320">
    <style
       id="style311">.cls-1{fill:#fff;}.cls-2{fill:url(#Unbenannter_Verlauf_3);}.cls-3{fill:url(#Unbenannter_Verlauf_3-2);}.cls-4{fill:url(#Unbenannter_Verlauf_3-3);}</style>
    <linearGradient
       id="Unbenannter_Verlauf_3"
       x1="2.76"
       y1="44.38"
       x2="49.88"
       y2="44.38"
       gradientTransform="matrix(1, 0, 0, -1, 0, 87.4)"
       gradientUnits="userSpaceOnUse">
      <stop
         offset="0"
         stop-color="#aa0c54"
         id="stop313" />
      <stop
         offset="1"
         stop-color="#cd1543"
         id="stop315" />
    </linearGradient>
    <linearGradient
       id="Unbenannter_Verlauf_3-2"
       x1="22.47"
       y1="42.89"
       x2="33.35"
       y2="42.89"
       xlink:href="#Unbenannter_Verlauf_3" />
    <linearGradient
       id="Unbenannter_Verlauf_3-3"
       x1="25.89"
       y1="73.03"
       x2="30.27"
       y2="73.03"
       xlink:href="#Unbenannter_Verlauf_3" />
  </defs>
  <g
     id="Ebene_2"
     data-name="Ebene 2">
    <g
       id="Ebene_1-2"
       data-name="Ebene 1">
      <g
         id="Ebene_2-2"
         data-name="Ebene 2">
        <g
           id="Ebene_1-2-2"
           data-name="Ebene 1-2">
          <path
             class="cls-1"
             d="M46.76,29.71c-2.34-3.7-4.54-7.19-4.54-16.24L42,11.7A14.29,14.29,0,0,0,15.35,7.54l-1-.23A13.43,13.43,0,0,0,1.68,11.06L0,12.85l6.41,3a9.47,9.47,0,0,1,5.33,6.81l.35,1.8a8.86,8.86,0,0,1-2.24,6.45h0A23.49,23.49,0,0,0,4.31,46.06c0,19.4,21.52,38.53,22.43,39.33l1.17,1,1.17-1c.92-.8,22.43-19.93,22.43-39.33C51.51,37.25,49.1,33.41,46.76,29.71Z"
             id="path322" />
          <path
             class="cls-2"
             d="M40.54,13.34h0A12.63,12.63,0,0,0,16.3,9.27l-.08.17-2.36-.57a11.65,11.65,0,0,0-11,3.19l-.06.06h0l4.2,2a11.36,11.36,0,0,1,6.37,8.12,8,8,0,0,0,5.1-7.37v-.22a9.45,9.45,0,1,1,9.75,9.55h-.3a22,22,0,0,0-22,22c0,19,22,38.29,22,38.29s22-19.32,22-38.29C49.91,29.06,40.54,32.17,40.54,13.34ZM27.91,67.88c-4.22-4.32-12.6-14-12.6-23.19a12.6,12.6,0,0,1,25.2,0C40.51,53.83,32.12,63.56,27.91,67.88Z"
             id="path324" />
          <path
             class="cls-3"
             d="M27.91,39.06a5.45,5.45,0,1,0,5.44,5.46v0A5.45,5.45,0,0,0,27.91,39.06Z"
             id="path326" />
          <circle
             class="cls-4"
             cx="28.08"
             cy="14.37"
             r="2.19"
             id="circle328" />
          <path
             d="M64.72,44.72c0-7.66,5-13.25,11.76-13.25a9,9,0,0,1,7.66,3.71h.44V32.09h5.68V51.42a1,1,0,0,0,.87,1.12.94.94,0,0,0,.29,0h1.11v4.82H88.24a3.44,3.44,0,0,1-3.61-3.18h-.44A8.49,8.49,0,0,1,76.62,58C69.83,58,64.72,52.38,64.72,44.72Zm20,0c0-5-3.23-7.86-7.08-7.86-4,0-7.09,3.18-7.09,7.86s3.14,7.71,7.14,7.71c4.24,0,7-3.37,7-7.66Z"
             id="path330"
             style="fill:#ffffff" />
          <path
             d="M96.87,32.09h5.64V35.8h.38a7.52,7.52,0,0,1,6.65-4.33h1.88v5.68h-2.5c-4.15,0-6.37,2.94-6.37,7.71V57.35H96.87Z"
             id="path332"
             style="fill:#ffffff" />
          <path
             d="M113.06,44.77c0-8,5.83-13.3,12.63-13.3,7.71,0,12.38,5.59,12.38,13.1v1.6H118.94a6.53,6.53,0,0,0,6.94,6.94,6.42,6.42,0,0,0,6.36-4.23l5.21,1.26c-1.64,5.25-6.27,7.85-11.52,7.85C118.22,58,113.06,52.48,113.06,44.77ZM132.29,42c-.29-3.42-3.13-5.59-6.6-5.59A6.54,6.54,0,0,0,119,42Z"
             id="path334"
             style="fill:#ffffff" />
          <path
             d="M141,44.72c0-7.66,5-13.25,11.76-13.25a9,9,0,0,1,7.66,3.71h.43V32.09h5.69V51.42a1,1,0,0,0,.87,1.12.94.94,0,0,0,.29,0h1.11v4.82h-4.29a3.44,3.44,0,0,1-3.62-3.18h-.43A8.49,8.49,0,0,1,152.9,58C146.08,58,141,52.38,141,44.72Zm19.95,0c0-5-3.23-7.86-7.08-7.86-4.05,0-7.09,3.18-7.09,7.86s3.13,7.71,7.13,7.71c4.26,0,7-3.37,7-7.66Z"
             id="path336"
             style="fill:#ffffff" />
          <path
             d="M177.36,53.06h-.25v4.29h-2.89v-35h3.09V36.72h.24a10,10,0,0,1,8.87-5c7.27,0,12.09,5.34,12.09,13.1s-5,13.11-12.24,13.11A10.18,10.18,0,0,1,177.36,53.06Zm18-8.2c0-6.21-3.9-10.31-9.11-10.31s-9.06,4.19-9.06,10.31c0,5.74,3.47,10.32,9,10.32,5.14,0,9.14-4,9.14-10.3Z"
             id="path338"
             style="fill:#ffffff" />
          <path
             d="M204.59,47.88V32.38h3.08V47.61c0,4.58,2.94,7.52,7,7.52a7.53,7.53,0,0,0,7.57-7.47c0-.12,0-.23,0-.34V32.38h3.09v25h-3.09v-4H222A8.59,8.59,0,0,1,214,58C208.06,58,204.59,53.54,204.59,47.88Z"
             id="path340"
             style="fill:#ffffff" />
          <path
             d="M235.67,50.36V34.94h-4.82V32.38h5.06V25h2.85v7.37h8v2.56h-8V50.31c0,3,1.25,4.34,4.29,4.34h3.27v2.7H243C238.52,57.35,235.67,55.32,235.67,50.36Z"
             id="path342"
             style="fill:#ffffff" />
          <path
             d="M252,54.74h5.21V24.93H252v-2.6h8.29V54.74h5.16v2.61H252Z"
             id="path344"
             style="fill:#ffffff" />
          <path
             d="M268.4,45c0-8,5.15-13.2,12-13.2,7.42,0,11.76,5.15,11.76,12.67v1.35H271.58c.1,6.07,3.61,9.4,9.06,9.4a8.22,8.22,0,0,0,8.19-6l3,.72A11.19,11.19,0,0,1,280.6,58C273.07,58,268.4,52.72,268.4,45ZM289,43.13c-.24-5.78-4.15-8.63-8.63-8.63s-8.37,3.38-8.74,8.63Z"
             id="path346"
             style="fill:#ffffff" />
          <path
             d="M298.66,33.38h3v4.34h.24a7.74,7.74,0,0,1,7.09-5h1.83v3.16h-2.07c-4.53,0-7,3.66-7,9V58.35h-3.09Z"
             id="path348"
             style="fill:#ffffff" />
        </g>
      </g>
    </g>
  </g>
</svg>
