<?xml version="1.0" encoding="UTF-8"?>
<svg id="Horizontal" xmlns="http://www.w3.org/2000/svg" xmlns:xlink="http://www.w3.org/1999/xlink"
    viewBox="0 -123.31 595.28 471.97">
    <defs>
        <style>
            .cls-1 {
                fill: #fffffd;
            }

            .cls-1,
            .cls-2,
            .cls-3,
            .cls-4,
            .cls-5 {
                stroke-width: 0px;
            }

            .cls-2 {
                fill: url(#Unbenannter_Verlauf_4-2);
            }

            .cls-3 {
                fill: url(#Unbenannter_Verlauf_4-3);
            }

            .cls-4 {
                fill: #1d1d1b;
            }

            .cls-5 {
                fill: url(#Unbenannter_Verlauf_4);
            }
        </style>
        <linearGradient id="Unbenannter_Verlauf_4" x1="252.47" y1="123.48" x2="342.88" y2="123.48"
            gradientUnits="userSpaceOnUse">
            <stop offset="0" stop-color="#b41258" />
            <stop offset="0" stop-color="#b41258" />
            <stop offset=".56" stop-color="#c60f4d" />
            <stop offset="1" stop-color="#d90d43" />
            <stop offset="1" stop-color="#d90d43" />
        </linearGradient>
        <linearGradient id="Unbenannter_Verlauf_4-2" x1="290.26" y1="126.35" x2="311.13" y2="126.35"
            xlink:href="#Unbenannter_Verlauf_4" />
        <linearGradient id="Unbenannter_Verlauf_4-3" x1="296.83" y1="68.48" x2="305.23" y2="68.48"
            xlink:href="#Unbenannter_Verlauf_4" />
    </defs>
    <path class="cls-4"
        d="M89.18,283.94h-30.29l-5.1,14.99h-12.49l24.49-69.97h16.99l24.29,69.97h-12.79l-5.1-14.99ZM85.38,272.84l-10.9-31.99h-1l-10.9,31.99h22.79Z" />
    <path class="cls-4"
        d="M113.67,246.55h11.7v7.7h.8c2-4.4,7.1-9,13.79-9h3.9v11.79h-5.2c-8.6,0-13.19,6.1-13.19,15.99v25.89h-11.8v-52.38Z" />
    <path class="cls-4"
        d="M148.25,272.84c0-16.49,12.1-27.59,26.19-27.59,15.99,0,25.69,11.6,25.69,27.19v3.3h-39.68c.1,8.8,5.8,14.39,14.39,14.39,5.8,0,11.3-3,13.19-8.8l10.8,2.6c-3.4,10.9-12.99,16.29-23.89,16.29-15.99,0-26.69-11.4-26.69-27.39ZM188.14,267.15c-.6-7.1-6.5-11.6-13.69-11.6s-13.19,5.3-13.89,11.6h27.59Z" />
    <path class="cls-4"
        d="M207.62,272.74c0-15.89,10.4-27.49,24.39-27.49,8.8,0,13.59,4.5,15.89,7.7h.9v-6.4h11.8v40.08c0,1.4.8,2.3,2.4,2.3h2.3v10h-8.9c-4.7,0-7.1-3.2-7.5-6.6h-.9c-2,3.2-6.6,7.9-15.69,7.9-14.09,0-24.69-11.6-24.69-27.49ZM249.01,272.84c0-10.4-6.7-16.29-14.69-16.29-8.4,0-14.69,6.6-14.69,16.29s6.5,15.99,14.79,15.99c8.9,0,14.59-7.1,14.59-15.99Z" />
    <path class="cls-4"
        d="M279.79,292.04h6.6v-56.18h-6.6v-6.9h29.19c13.29,0,21.19,7.7,21.19,17.89,0,6.9-3.3,12.09-8.9,15.09v.6c4.7,1.6,11.3,6.6,11.3,16.49,0,12.6-9.8,19.89-21.59,19.89h-31.19v-6.9ZM308.68,259.25c7.9,0,13.2-4.7,13.2-11.79s-5.4-11.3-12.9-11.3h-14.49v23.09h14.19ZM309.58,291.84c8.3,0,14.59-4,14.59-12.99s-7.4-12.79-15.49-12.79h-14.19v25.79h15.09Z" />
    <path class="cls-4"
        d="M340.56,279.64v-32.69h7.9v32.39c0,8.3,6.1,13.69,13.39,13.69,8.2,0,14.59-6.3,14.59-14.89v-31.19h7.9v51.98h-7.9v-7.6h-.6c-2.2,4.7-7.8,8.9-15.89,8.9-12.09,0-19.39-9.1-19.39-20.59Z" />
    <path class="cls-4"
        d="M401.13,284.14v-30.49h-9.8v-6.7h10.3v-15.09h7.4v15.09h15.99v6.7h-15.99v30.39c0,5.6,2.3,8,7.8,8h7.5v6.9h-7.4c-9.5,0-15.79-4.3-15.79-14.79Z" />
    <path class="cls-4" d="M432.01,292.14h10.5v-61.38h-10.5v-6.8h18.39v68.17h10.5v6.8h-28.89v-6.8Z" />
    <path class="cls-4"
        d="M463.4,273.14c0-16.59,11.4-27.49,25.19-27.49,15.69,0,24.69,11,24.69,26.59v2.9h-41.78c.1,11.6,6.9,18.09,17.69,18.09,7.3,0,13.99-4.2,15.69-11.4l7.7,1.8c-2.9,9.7-11.5,16.59-23.49,16.59-15.79,0-25.69-11.1-25.69-27.09ZM505.18,268.75c-.5-10.79-8-15.99-16.59-15.99s-16.29,6.2-16.89,15.99h33.49Z" />
    <path class="cls-4"
        d="M522.27,246.95h7.8v8.7h.6c1.5-4.4,6.6-10,14.19-10h3.4v7.9h-4.7c-9.5,0-13.39,7.7-13.39,17.59v27.79h-7.9v-51.98Z" />
    <path class="cls-1"
        d="M336.85,97.89c-4.48-7.09-8.71-13.8-8.71-31.15l-.49-3.39c-2.43-12.74-13.71-22.32-26.95-22.32-10.03,0-19.17,5.46-24.09,14.35l-1.87-.45c-8.7-2.08-17.99.62-24.36,7.17l-3.21,3.45,12.29,5.71c5.35,2.49,9.08,7.25,10.22,13.05l.68,3.45c.26,4.47-1.23,8.95-4.3,12.38h0c-2.73,3.25-5.01,6.88-6.76,10.8-2.49,5.6-3.87,11.8-3.87,18.31,0,37.21,41.27,73.9,43.03,75.44l2.24,1.97,2.24-1.97c1.76-1.54,43.03-38.22,43.03-75.44,0-16.9-4.64-24.25-9.12-31.36" />
    <path class="cls-5"
        d="M300.69,171.1c-8.09-8.28-24.17-26.95-24.17-44.47,0-13.33,10.84-24.17,24.17-24.17s24.17,10.84,24.17,24.17c0,17.52-16.08,36.19-24.17,44.47,6.27,0-2.3,0-2.3,0h2.3M278.44,58.68c-.05.12-.11.22-.15.34l-4.54-1.09c-7.65-1.83-15.7.51-21.17,6.15-.04.04-.07.07-.11.11l.06.03,8.05,3.74c6.63,3.08,10.92,9.01,12.21,15.59,5.67-2.23,9.69-7.7,9.79-14.14,0-.07.01-.15.01-.23,0-.07,0-.14,0-.21.12-9.91,8.18-17.9,18.12-17.9s18.13,8.12,18.13,18.13-7.81,17.79-17.55,18.1c-.19,0-.39-.02-.58-.02-23.3,0-42.19,18.89-42.19,42.19,0,36.38,42.19,73.44,42.19,73.44,0,0,42.19-37.06,42.19-73.44,0-32.85-17.96-26.88-17.96-62.98h-.07c-.91-12.57-11.36-22.49-24.16-22.49-9.98,0-18.54,6.04-22.26,14.66" />
    <path class="cls-2"
        d="M290.26,126.35c0,5.76,4.67,10.44,10.43,10.44s10.44-4.67,10.44-10.44-4.67-10.43-10.44-10.43-10.43,4.67-10.43,10.43" />
    <path class="cls-3" d="M296.83,68.49c0,2.32,1.88,4.2,4.2,4.2s4.2-1.88,4.2-4.2-1.88-4.2-4.2-4.2-4.2,1.88-4.2,4.2" />
</svg>