<?xml version="1.0" encoding="UTF-8"?>
<svg id="Signet" xmlns="http://www.w3.org/2000/svg"
    xmlns:xlink="http://www.w3.org/1999/xlink" viewBox="0 0 137.48 212.6">
    <defs>
        <style>
            .cls-1 {
                fill: #fffffd;
            }

            .cls-1,
            .cls-2,
            .cls-3,
            .cls-4 {
                stroke-width: 0px;
            }

            .cls-2 {
                fill: url(#Unbenannter_Verlauf_4-2);
            }

            .cls-3 {
                fill: url(#Unbenannter_Verlauf_4-3);
            }

            .cls-4 {
                fill: url(#Unbenannter_Verlauf_4);
            }
        </style>
        <linearGradient id="Unbenannter_Verlauf_4" x1="24.96" y1="108.29" x2="114.88" y2="108.29"
            gradientUnits="userSpaceOnUse">
            <stop offset="0" stop-color="#b41258" />
            <stop offset="0" stop-color="#b41258" />
            <stop offset=".56" stop-color="#c60f4d" />
            <stop offset="1" stop-color="#d90d43" />
            <stop offset="1" stop-color="#d90d43" />
        </linearGradient>
        <linearGradient id="Unbenannter_Verlauf_4-2" x1="62.55" y1="111.15" x2="83.3" y2="111.15"
            xlink:href="#Unbenannter_Verlauf_4" />
        <linearGradient id="Unbenannter_Verlauf_4-3" x1="69.08" y1="53.6" x2="77.43" y2="53.6"
            xlink:href="#Unbenannter_Verlauf_4" />
    </defs>
    <path class="cls-1"
        d="M108.88,82.85c-4.45-7.06-8.66-13.72-8.66-30.98l-.49-3.37c-2.41-12.67-13.63-22.2-26.8-22.2-9.98,0-19.06,5.43-23.96,14.27l-1.86-.44c-8.65-2.06-17.9.61-24.23,7.13l-3.19,3.44,12.22,5.68c5.33,2.48,9.03,7.21,10.16,12.98l.67,3.43c.26,4.45-1.23,8.9-4.27,12.31h0c-2.71,3.23-4.99,6.84-6.72,10.74-2.47,5.57-3.85,11.73-3.85,18.21,0,37.01,41.04,73.49,42.79,75.02l2.23,1.96,2.23-1.96c1.75-1.53,42.79-38.01,42.79-75.02,0-16.81-4.61-24.12-9.07-31.19" />
    <path class="cls-4"
        d="M72.92,155.65c-8.05-8.24-24.04-26.8-24.04-44.22,0-13.25,10.78-24.04,24.04-24.04s24.03,10.78,24.03,24.04c0,17.42-15.99,35.99-24.03,44.22,6.24,0-2.28,0-2.28,0h2.28M50.79,43.85c-.05.11-.11.22-.15.34l-4.51-1.08c-7.61-1.82-15.61.51-21.05,6.12-.04.04-.07.07-.11.11l.06.03,8.01,3.72c6.6,3.06,10.86,8.96,12.14,15.5,5.63-2.22,9.64-7.66,9.73-14.06,0-.07.01-.15.01-.23,0-.07,0-.14,0-.2.12-9.85,8.14-17.8,18.02-17.8s18.03,8.07,18.03,18.03-7.76,17.69-17.45,18c-.19,0-.38-.02-.58-.02-23.17,0-41.96,18.79-41.96,41.96,0,36.18,41.96,73.03,41.96,73.03,0,0,41.96-36.86,41.96-73.03,0-32.67-17.86-26.73-17.86-62.64h-.07c-.9-12.5-11.3-22.36-24.03-22.36-9.93,0-18.44,6.01-22.13,14.58" />
    <path class="cls-2"
        d="M62.55,111.15c0,5.73,4.64,10.38,10.38,10.38s10.38-4.65,10.38-10.38-4.65-10.38-10.38-10.38-10.38,4.64-10.38,10.38" />
    <path class="cls-3"
        d="M69.08,53.6c0,2.31,1.87,4.18,4.18,4.18s4.18-1.87,4.18-4.18-1.87-4.18-4.18-4.18-4.18,1.87-4.18,4.18" />
</svg>