<svg width="62" height="86" xmlns="http://www.w3.org/2000/svg" xmlns:xlink="http://www.w3.org/1999/xlink" xml:space="preserve" overflow="hidden"><defs><clipPath id="clip0"><rect x="378" y="524" width="62" height="86"/></clipPath><clipPath id="clip1"><rect x="379" y="524" width="61" height="86"/></clipPath><clipPath id="clip2"><rect x="379" y="524" width="61" height="86"/></clipPath><clipPath id="clip3"><rect x="379" y="524" width="401" height="86"/></clipPath></defs><g clip-path="url(#clip0)" transform="translate(-378 -524)"><g clip-path="url(#clip1)"><g clip-path="url(#clip2)"><g clip-path="url(#clip3)"><path d="M21.4047 83.4326 36.3234 83.4326 36.3234 86 21.4047 86ZM21.4047 77.0143 36.3234 77.0143 36.3234 79.5818 21.4047 79.5818ZM21.4047 70.5967 36.3234 70.5967 36.3234 73.1642 21.4047 73.1642ZM21.4047 64.1785 36.3234 64.1785 36.3234 66.7459 21.4047 66.7459ZM21.4047 57.7609 36.3234 57.7609 36.3234 60.3283 21.4047 60.3283Z" fill="#FDC300" fill-rule="nonzero" fill-opacity="1" transform="matrix(1.00217 0 0 1 379.841 524)"/><path d="M21.4047 51.3433 36.3234 51.3433 36.3234 53.9108 21.4047 53.9108ZM21.4047 44.9251 36.3234 44.9251 36.3234 47.4925 21.4047 47.4925ZM21.4047 38.5075 36.3234 38.5075 36.3234 41.0749 21.4047 41.0749ZM21.4047 32.0892 36.3234 32.0892 36.3234 34.6567 21.4047 34.6567ZM21.4047 25.6717 36.3234 25.6717 36.3234 28.2391 21.4047 28.2391ZM21.4047 19.2534 36.3234 19.2534 36.3234 21.8208 21.4047 21.8208Z" fill="#CE1531" fill-rule="nonzero" fill-opacity="1" transform="matrix(1.00217 0 0 1 379.841 524)"/><path d="M21.4047 12.8358 36.3234 12.8358 36.3234 15.4033 21.4047 15.4033ZM21.4047 6.41758 36.3234 6.41758 36.3234 8.98501 21.4047 8.98501ZM21.4047 0 36.3234 0 36.3234 2.56743 21.4047 2.56743Z" fill="#000000" fill-rule="nonzero" fill-opacity="1" transform="matrix(1.00217 0 0 1 379.841 524)"/><path d="M42.8093 64.1785 57.7281 64.1785 57.7281 66.7459 42.8093 66.7459ZM42.8093 57.7609 57.7281 57.7609 57.7281 60.3283 42.8093 60.3283Z" fill="#FDC300" fill-rule="nonzero" fill-opacity="1" transform="matrix(1.00217 0 0 1 379.841 524)"/><path d="M42.8093 51.3433 57.7281 51.3433 57.7281 53.9108 42.8093 53.9108ZM42.8093 44.9251 57.7281 44.9251 57.7281 47.4925 42.8093 47.4925ZM42.8093 38.5075 57.7281 38.5075 57.7281 41.0749 42.8093 41.0749ZM42.8093 32.0892 57.7281 32.0892 57.7281 34.6567 42.8093 34.6567ZM42.8093 25.6717 57.7281 25.6717 57.7281 28.2391 42.8093 28.2391Z" fill="#CE1531" fill-rule="nonzero" fill-opacity="1" transform="matrix(1.00217 0 0 1 379.841 524)"/><path d="M42.8093 19.2534 57.7281 19.2534 57.7281 21.8208 42.8093 21.8208ZM42.8093 12.8358 57.7281 12.8358 57.7281 15.4033 42.8093 15.4033Z" fill="#000000" fill-rule="nonzero" fill-opacity="1" transform="matrix(1.00217 0 0 1 379.841 524)"/><path d="M0 57.7609 14.9187 57.7609 14.9187 60.3283 0 60.3283ZM0 51.3433 14.9187 51.3433 14.9187 53.9108 0 53.9108Z" fill="#FDC300" fill-rule="nonzero" fill-opacity="1" transform="matrix(1.00217 0 0 1 379.841 524)"/><path d="M0 44.9251 14.9187 44.9251 14.9187 47.4925 0 47.4925ZM0 38.5075 14.9187 38.5075 14.9187 41.0749 0 41.0749ZM0 32.0892 14.9187 32.0892 14.9187 34.6567 0 34.6567Z" fill="#CE1531" fill-rule="nonzero" fill-opacity="1" transform="matrix(1.00217 0 0 1 379.841 524)"/><path d="M0 25.6717 14.9187 25.6717 14.9187 28.2391 0 28.2391Z" fill="#000000" fill-rule="nonzero" fill-opacity="1" transform="matrix(1.00217 0 0 1 379.841 524)"/><path d="M301.715 18.2542C307.234 18.1612 312.607 20.0276 316.879 23.5217L314.428 26.9718C310.251 24.0659 306.709 22.613 301.896 22.613 295.63 22.613 291.363 25.7005 291.363 30.6041 291.363 35.3262 294.45 37.324 302.895 39.5945 313.338 42.3188 318.151 45.8606 318.151 53.9423 318.151 62.7504 310.523 67.7445 300.988 67.7445 293.27 67.7445 288.094 65.1114 284.007 61.6606L286.913 58.3011C290.999 61.479 295.086 63.2952 300.988 63.2952 307.799 63.2952 312.612 60.0261 312.612 54.2144 312.612 48.4938 309.978 46.4048 300.171 43.6806 290 41.0468 285.914 37.324 285.914 30.6953 285.914 23.4306 292.725 18.2549 301.715 18.2549ZM270.902 19.2534 270.902 53.6695C267.633 59.2996 263.274 63.3863 257.1 63.3863 250.834 63.3863 247.656 60.2077 247.656 52.6703L247.656 19.2541 242.388 19.2541 242.388 53.2165C242.388 62.5694 247.383 67.7458 255.829 67.7458 263.184 67.7458 268.087 63.9312 271.357 58.3017L271.72 66.7466 276.17 66.7466 276.17 19.2534ZM201.951 30.6953C201.951 37.324 206.037 41.0475 216.208 43.6806 226.015 46.4048 228.648 48.4938 228.648 54.2144 228.648 60.0261 223.836 63.2952 217.025 63.2952 211.123 63.2952 207.036 61.479 202.95 58.3011L200.044 61.6606C204.13 65.1114 209.306 67.7445 217.025 67.7445 226.559 67.7445 234.188 62.7504 234.188 53.9423 234.188 45.86 229.375 42.3188 218.932 39.5938 210.487 37.324 207.399 35.3262 207.399 30.6041 207.399 25.7005 211.668 22.613 217.933 22.613 222.746 22.613 226.287 24.0659 230.465 26.9718L232.917 23.5211C228.644 20.0273 223.27 18.1614 217.751 18.2549 208.762 18.2549 201.951 23.4306 201.951 30.6953ZM163.511 27.2439 163.057 19.2534 158.516 19.2534 158.516 66.7459 163.784 66.7459 163.784 32.3298C167.597 26.5181 172.047 22.5225 178.494 22.5225 184.306 22.5225 187.394 25.7005 187.394 33.51L187.394 66.7459 192.66 66.7459 192.66 32.7835C192.66 23.6122 188.12 18.2542 179.493 18.2542 172.682 18.2542 167.325 21.8865 163.511 27.2446ZM77.3682 19.2541 77.3682 23.7945 101.705 23.7945 75.1888 62.6605 75.1888 66.7466 107.153 66.7466 107.698 62.2062 81.3637 62.2062 107.88 23.3401 107.88 19.2541ZM148.499 45.0437 116.807 45.0437C117.443 57.9378 123.437 63.2959 131.609 63.2959 136.785 63.2959 140.236 61.6613 144.413 58.5738L146.864 61.9341C142.415 65.5664 137.603 67.7458 131.337 67.7458 118.805 67.7458 111.178 58.665 111.178 43.4091 111.178 28.2438 118.533 18.2555 130.156 18.2555 142.506 18.2555 148.681 27.2452 148.681 41.2291 148.681 42.6827 148.59 44.1356 148.5 45.0437ZM143.505 39.5952C143.505 29.243 139.328 22.6137 130.337 22.6137 122.892 22.6137 117.352 28.0622 116.807 40.957L143.505 40.957Z" fill="#000000" fill-rule="evenodd" fill-opacity="1" transform="matrix(1.00217 0 0 1 379.841 524)"/><path d="M338.674 42.481C339.99 43.8006 340.699 45.6073 340.632 47.4697 340.635 49.1114 340.268 50.7327 339.559 52.2132 338.611 54.0576 337.421 55.7669 336.02 57.2958 334.376 59.1781 331.935 61.6881 328.697 64.8259L341.272 64.8259 340.971 66.7459 326.1 66.7459 326.1 64.9009C329.588 61.4629 332.173 58.7773 333.855 56.8441 335.231 55.3517 336.408 53.6877 337.357 51.8935 338.004 50.5487 338.338 49.0748 338.335 47.5823 338.407 46.1931 337.911 44.8344 336.961 43.818 335.959 42.8555 334.603 42.3511 333.215 42.4247 332.065 42.3915 330.923 42.6303 329.883 43.1216 328.875 43.6614 327.985 44.3974 327.266 45.2863L325.761 44.1189C326.666 42.9887 327.802 42.0646 329.093 41.408 330.421 40.8019 331.869 40.5058 333.328 40.5421 335.3 40.4354 337.23 41.1354 338.674 42.481ZM358.794 43.893C360.15 46.1269 360.827 49.4525 360.827 53.8699 360.827 58.2622 360.149 61.5753 358.794 63.8092 356.809 67.0915 352.539 68.143 349.256 66.1577 348.289 65.5725 347.479 64.7599 346.897 63.7905 345.541 61.5445 344.863 58.2251 344.864 53.8324 344.864 49.4405 345.541 46.1274 346.897 43.893 348.888 40.6076 353.166 39.5587 356.451 41.5502 357.41 42.1311 358.213 42.9348 358.794 43.893ZM348.572 45.1355C347.605 46.9932 347.122 49.8922 347.122 53.8324 347.122 57.7984 347.606 60.7099 348.572 62.5667 349.538 64.4244 350.962 65.3531 352.845 65.3526 354.728 65.3526 356.152 64.4303 357.119 62.5855 358.085 60.7407 358.568 57.8355 358.568 53.8699 358.568 49.9297 358.085 47.0245 357.119 45.1543 356.152 43.2845 354.727 42.3496 352.845 42.3496 350.963 42.3496 349.538 43.2782 348.572 45.1355ZM376.485 42.481C377.801 43.8006 378.509 45.6073 378.442 47.4697 378.445 49.1114 378.079 50.7327 377.369 52.2132 376.422 54.0576 375.232 55.7669 373.831 57.2958 372.187 59.1781 369.746 61.6881 366.508 64.8259L379.082 64.8259 378.781 66.7459 363.91 66.7459 363.91 64.9009C367.398 61.4629 369.983 58.7773 371.665 56.8441 373.041 55.3517 374.218 53.6877 375.167 51.8935 375.814 50.5487 376.149 49.0748 376.146 47.5823 376.217 46.1931 375.721 44.8344 374.772 43.818 373.769 42.8555 372.413 42.3511 371.025 42.4247 369.875 42.3915 368.734 42.6303 367.693 43.1216 366.686 43.6614 365.796 44.3974 365.077 45.2863L363.571 44.1189C364.476 42.9888 365.612 42.0646 366.903 41.408 368.23 40.8019 369.679 40.5058 371.138 40.5421 373.11 40.4353 375.04 41.1352 376.485 42.481ZM395.724 42.481C397.04 43.8007 397.748 45.6074 397.681 47.4697 397.684 49.1114 397.317 50.7327 396.608 52.2132 395.66 54.0576 394.47 55.7669 393.069 57.2958 391.425 59.1781 388.984 61.6881 385.746 64.8259L398.321 64.8259 398.02 66.7459 383.149 66.7459 383.149 64.9009C386.637 61.4629 389.222 58.7773 390.904 56.8441 392.28 55.3517 393.457 53.6877 394.406 51.8935 395.053 50.5487 395.387 49.0748 395.384 47.5823 395.456 46.1931 394.96 44.8344 394.01 43.818 393.008 42.8555 391.652 42.3511 390.264 42.4247 389.114 42.3915 387.972 42.6303 386.932 43.1216 385.924 43.6614 385.035 44.3974 384.316 45.2863L382.81 44.1189C383.715 42.9887 384.851 42.0646 386.142 41.408 387.47 40.8019 388.918 40.5058 390.377 40.5421 392.349 40.4354 394.279 41.1354 395.723 42.481Z" fill="#CE1531" fill-rule="nonzero" fill-opacity="1" transform="matrix(1.00217 0 0 1 379.841 524)"/></g></g></g></g></svg>