<?xml version="1.0" encoding="UTF-8" standalone="no"?>
<svg
   id="Layer_1"
   data-name="Layer 1"
   viewBox="0 0 16.000001 16"
   version="1.1"
   sodipodi:docname="copy-map1.svg"
   width="16"
   height="16"
   inkscape:version="1.1.2 (0a00cf5339, 2022-02-04, custom)"
   xmlns:inkscape="http://www.inkscape.org/namespaces/inkscape"
   xmlns:sodipodi="http://sodipodi.sourceforge.net/DTD/sodipodi-0.dtd"
   xmlns="http://www.w3.org/2000/svg"
   xmlns:svg="http://www.w3.org/2000/svg"
   xmlns:rdf="http://www.w3.org/1999/02/22-rdf-syntax-ns#"
   xmlns:cc="http://creativecommons.org/ns#"
   xmlns:dc="http://purl.org/dc/elements/1.1/">
  <sodipodi:namedview
     id="namedview10826"
     pagecolor="#ffffff"
     bordercolor="#666666"
     borderopacity="1.0"
     inkscape:pageshadow="2"
     inkscape:pageopacity="0.0"
     inkscape:pagecheckerboard="0"
     showgrid="false"
     inkscape:lockguides="true"
     height="200px"
     inkscape:zoom="22.627417"
     inkscape:cx="-6.2534756"
     inkscape:cy="-2.0771262"
     inkscape:window-width="2560"
     inkscape:window-height="1359"
     inkscape:window-x="0"
     inkscape:window-y="0"
     inkscape:window-maximized="1"
     inkscape:current-layer="Layer_1" />
  <defs
     id="defs10819">
    <style
       id="style10817">.cls-1{fill-rule:evenodd;}</style>
    <clipPath
       clipPathUnits="userSpaceOnUse"
       id="clipPath10935">
      <path
         id="path10937"
         style="fill:#ff0000;fill-opacity:1;fill-rule:nonzero;stroke:none"
         d="M 0,0 V 122.87891 H 105.91992 V 0 H 80.875 c 0.101041,0.30823514 0.197038,0.6189079 0.279297,0.9296875 0.874163,0.6820879 1.704207,1.442408 1.517578,2.390625 -0.360522,1.8317254 -0.986559,3.0552459 -1.792969,4.0136719 0.461556,0.061478 0.922763,0.1242745 1.384766,0.1816406 2.549963,0.437909 4.472759,0.6224182 6.867187,1.5371094 0.665412,0.254193 1.699686,0.3146339 1.886719,1.0019536 0.142811,0.524808 0.269313,1.065839 0.386719,1.609374 0.548587,0.192116 0.993192,0.503709 1.291015,0.96875 0.04165,0.0047 0.08335,0.009 0.125,0.01367 3.346802,0.445007 5.251947,0.581206 8.416018,1.390625 0.59922,0.15329 1.60794,0.02256 1.74805,0.625 0.65476,2.815711 1.22467,5.887821 0.4121,8.66211 -0.30616,1.045309 -2.12609,0.480702 -3.17578,0.771484 -0.19492,0.054 -0.366027,0.173206 -0.548825,0.259766 -0.986633,0.362161 -1.191287,0.442522 -1.615234,0.566406 -0.07364,0.576152 -0.165062,1.150062 -0.300782,1.716797 -0.004,0.01673 -0.496388,0.0573 -0.925781,0.09375 -0.191366,1.081422 -0.46923,2.134161 -0.898437,3.136719 0.0033,0.08049 0.0014,0.161944 0.0059,0.242187 -0.04827,-0.01079 -0.05083,-0.01143 -0.0957,-0.02148 -0.02168,0.04754 -0.03613,0.09726 -0.05859,0.144531 -0.386856,0.814132 -1.799992,0.117577 -2.699219,0.179687 -0.728793,0.05034 -1.455367,0.135544 -2.185546,0.158204 -0.06081,0.0019 -0.362967,0.0057 -0.447266,0.0078 0.362551,1.426764 0.546733,2.86633 0.160156,4.236328 -0.361817,1.282253 -6.237408,2.001774 -2.654297,1.498047 0.141381,-0.07069 0.552661,-0.305217 0.425781,-0.210937 -0.06847,0.05087 -2.980894,2.072669 -3.357421,2.267578 -0.02495,0.01291 -0.05878,0.0261 -0.08398,0.03906 0.07515,0.406949 0.12757,0.771812 0.136719,1.052735 0.235393,0.963734 0.474714,1.926226 0.777344,2.859375 -2.861786,3.845741 -5.764148,7.659826 -8.646485,11.490234 -0.425936,0.7032 -0.854143,1.404149 -1.285156,2.109375 -0.195433,0.591792 -0.39356,1.183289 -0.703125,1.720703 -0.27582,0.478832 -0.489736,0.807581 -0.732422,1.207031 0.562633,0.521636 0.686414,1.149862 -0.523437,0.861329 -0.03545,0.05569 -0.08026,0.135109 -0.115235,0.189453 -0.0048,0.0058 -0.0068,0.01589 -0.01172,0.02148 0,0 -0.002,0.002 -0.002,0.002 -0.210925,0.32725 -0.413888,0.606389 -0.613282,0.894531 -0.004,0.06616 -0.0032,0.122176 -0.0078,0.189453 -0.006,0.08733 -0.524518,0.703129 -1.289063,1.56836 -0.07112,0.08977 -0.145903,0.18286 -0.21875,0.273437 0.350897,0.861065 0.635422,1.743493 0.806641,2.652344 0.02744,0.14564 -1.037417,0.826396 -2.101563,1.478516 -0.0038,0.07638 -0.03275,0.149305 -0.04687,0.224609 0.04793,0.840967 -0.378463,1.396224 -1.333984,2.109375 -0.390038,0.715064 -1.172105,0.972821 -2.132812,0.923828 -0.605779,0.475283 -1.361696,0.902994 -1.847657,1.402344 -1.727979,1.77559 -2.678985,2.458538 -4.941406,3.609375 -0.397084,0.584948 -0.785523,0.887831 -1.146484,0.5625 -0.01768,-0.01593 -0.03314,-0.0348 -0.05078,-0.05078 -0.478989,0.166569 -0.96471,0.318317 -1.441406,0.490234 -0.679304,-0.01602 -1.245631,-0.007 -1.816406,-0.0078 -0.481835,0.140057 -0.981556,0.279122 -1.65625,0.480468 C 52.397908,76.252787 50.250912,76.60395 49.197266,75.310547 47.919886,73.742498 47.583525,72.30976 47.673828,70.923828 46.369394,70.335175 45.10969,69.620016 44.037109,68.685547 43.503955,68.221044 43.561509,67.349649 43.25,66.714844 43.058458,66.324514 42.773886,65.988392 42.535156,65.625 41.897997,64.490506 41.627554,64.014256 41.287109,63.482422 40.442997,63.053975 39.582436,62.652959 38.779297,62.152344 36.958281,61.01726 35.193615,59.794181 33.429688,58.572266 c -1.280394,-0.886959 -2.568465,-1.769198 -3.783204,-2.744141 -0.799411,-0.641602 -1.498276,-1.398689 -2.248046,-2.097656 -0.766637,-2.81836 -1.484316,-4.129061 -1.232422,-5.097657 -2.374902,-2.027737 -3.446524,-3.143177 -5.53125,-6.183593 -0.570705,-0.832331 -0.958253,-1.775917 -1.4375,-2.664063 0.202249,-5.0052 -0.561129,-5.568063 3.013672,-6.03125 0.03346,-0.117894 0.09009,-0.224337 0.197265,-0.304687 0.635133,-0.476144 0.917217,-0.688681 1.427735,-1.078125 0.03225,-0.408783 0.06446,-0.832846 0.111328,-1.25 -0.0038,-0.0013 -0.0075,-0.0026 -0.01172,-0.0039 -0.09869,-0.03046 -0.01745,-0.153352 0.05859,-0.273438 0.07154,-0.513593 0.174518,-1.004758 0.375,-1.416016 0.0097,-0.06735 0.02224,-0.13459 0.02344,-0.199218 0.0022,-0.118632 0.007,-0.236897 0.01172,-0.355469 -0.522873,-0.358191 -1.101977,-0.771274 -1.761719,-1.257813 -1.130158,-0.833455 -0.110895,-3.389587 0.517578,-4.542968 0.10151,-0.186292 0.208085,-0.370015 0.3125,-0.554688 -1.365418,-3.783647 1.013151,-6.253297 3.822266,-6.390625 0.519973,-0.837922 1.064364,-1.705126 1.720703,-2.71875 0.642314,-0.991964 1.776747,-2.588378 2.794922,-3.9941405 C 26.526623,8.9568098 23.232191,8.3463352 26.910156,0 Z m 70.365234,67.205078 c -0.0033,-0.05745 -0.01581,-0.123257 -0.02344,-0.183594 -0.283124,0.173018 -0.444818,0.272171 -0.681641,0.414063 -0.135345,0.546473 -0.293931,1.085921 -0.492187,1.611328 0.568017,-0.531137 1.069677,-1.161405 1.197265,-1.841797 z m -0.02344,-0.183594 c 0.02889,-0.01766 0.04123,-0.02319 0.07031,-0.04102 0.008,-0.158875 -0.0079,-0.319885 -0.05078,-0.482422 -0.04397,0.02079 -0.08699,0.04345 -0.130859,0.06445 0.0396,0.154959 0.09395,0.321505 0.111328,0.458984 z M 85.005859,35.605469 c 0.0068,0.02745 0.01875,0.05458 0.02539,0.08203 0.0097,0.04004 0.158001,-0.0215 0.119141,-0.03516 -0.05799,-0.02039 -0.08918,-0.02769 -0.144531,-0.04687 z m -45.132812,25.90039 c -0.09095,-0.13315 0.135721,0.347764 0.294922,0.396485 0.0016,-0.0048 0.0023,-0.0089 0.0039,-0.01367 -0.103174,-0.124797 -0.207607,-0.24926 -0.298828,-0.382813 z m 31.085937,4.697266 c -0.0945,0.04322 -0.184929,0.09506 -0.279296,0.138672 0.0088,0.01278 0.01657,0.02629 0.02539,0.03906 0.0586,0.0848 0.347646,-0.220604 0.253906,-0.177734 z m -1.742187,1.5 c -0.133916,0.07976 -0.442236,0.269193 -0.507813,0.308594 -0.134856,0.06277 -0.609687,0.2848 -0.890625,0.417969 0.0079,0.04866 0.02427,0.09568 0.03125,0.144531 0.0043,0.03038 -0.0061,0.0562 -0.0039,0.08594 0.253401,0.149264 0.444149,0.280768 0.529297,0.382813 0.335499,-0.411478 0.598581,-0.874226 0.841797,-1.339844 z m -1.232422,1.771484 c -0.109626,0.02435 -0.253415,0.04687 -0.392578,0.06641 -0.09892,0.142282 -0.221292,0.276035 -0.359375,0.40625 0.270322,-0.100731 0.521666,-0.262086 0.751953,-0.472657 z m -2.78125,0.441407 c -0.01891,0.02032 -0.05397,0.05847 -0.07227,0.07813 0.187033,0.300576 0.628917,0.237514 1.072266,0.152343 -0.325483,-0.05658 -0.658636,-0.126889 -1,-0.230468 z" />
    </clipPath>
  </defs>
  <title
     id="title10821">map</title>
  <path
     class="cls-1"
     d="M 37.92,86.147224 V 101.7 l 30.15,13 V 85.867279 l 6.45,-0.02548 V 114.42 l 25,-12.59 V 45.829996 l -6.950316,2.357343 0.0064,-6.467762 L 101.59,38.13 c 1.65075,-0.602604 3.47979,0.229589 4.11,1.87 0.1451,0.369544 0.21972,0.76299 0.22,1.16 v 62.7 c 0.005,1.31367 -0.7853,2.49976 -2,3 l -31.2,15.67 c -0.917779,0.46507 -2.002221,0.46507 -2.92,0 L 34.8,107.36 4.68,122.53 C 3.0922818,123.33489 1.1527116,122.69882 0.35,121.11 0.12352051,120.65996 0.00375721,120.1638 0,119.66 V 53.24 c -3.7231563e-4,-1.433705 0.9443702,-2.696077 2.32,-3.1 l 11.090868,-4.066624 0.01908,6.740878 L 6.46,55.44 v 59 l 25,-12.59 V 86.049785 Z"
     id="path10823"
     clip-path="url(#clipPath10935)"
     sodipodi:nodetypes="cccccccccccccccccccccccccccccc"
     transform="matrix(0.12178196,0,0,0.12178196,1.5504323,1.0355791)" />
  <metadata
     id="metadata10885">
    <rdf:RDF>
      <cc:Work
         rdf:about="">
        <dc:title>map</dc:title>
      </cc:Work>
    </rdf:RDF>
  </metadata>
  <path
     clip-rule="evenodd"
     d="M 9.6446649,5.6388714 H 6.3552824 c -0.3241847,0 -0.5873655,0.2631286 -0.5873655,0.5874175 0,0.3242112 0.2631807,0.58734 0.5873655,0.58734 h 3.2893825 c 0.3242107,0 0.5874431,-0.2631288 0.5874431,-0.58734 C 10.232083,5.902 9.9688756,5.6388714 9.6446649,5.6388714 Z m 0,2.1146252 H 6.3552824 c -0.3241847,0 -0.5873655,0.2631286 -0.5873655,0.5873138 0,0.324184 0.2631807,0.587443 0.5873655,0.587443 h 3.2893825 c 0.3242107,0 0.5874431,-0.263259 0.5874431,-0.587443 0,-0.3241852 -0.2632324,-0.5873138 -0.5874431,-0.5873138 z M 3.4183764,10.337978 c 0,0.519223 0.4205928,0.939765 0.9398416,0.939765 h 7.283513 c 0.519224,0 0.939893,-0.420542 0.939893,-0.939765 V 2.3494885 c 0,-0.5191977 -0.420669,-0.9397904 -0.939893,-0.9397904 H 9.7267973 C 9.5648344,0.606192 8.8527948,0 7.9999995,0 7.147126,0 6.4351392,0.606192 6.2732019,1.4096981 H 4.358218 c -0.5192488,0 -0.9398416,0.4205927 -0.9398416,0.9397904 z M 5.1100815,2.584482 H 6.237773 v 0.4228937 c 0,0.2865584 0.2303898,0.5169223 0.5169744,0.5169223 h 2.4903758 c 0.2865319,0 0.5169733,-0.2303897 0.5169733,-0.5169223 V 2.584482 h 1.1276925 c 0.286559,0 0.517001,0.2303897 0.517001,0.5169734 V 9.586036 c 0,0.2866374 -0.230442,0.516948 -0.517001,0.516948 H 5.1100815 c -0.2866102,0 -0.516922,-0.2303106 -0.516922,-0.516948 V 3.1014298 c 0,-0.2865846 0.2303118,-0.5169478 0.516922,-0.5169478 z M 7.4126086,1.7621229 c 0,-0.324211 0.2631795,-0.5873918 0.5873645,-0.5873918 0.3242115,0 0.5874186,0.2631808 0.5874186,0.5873918 0,0.324237 -0.2632071,0.5873656 -0.5874186,0.5873656 -0.324185,0 -0.5873645,-0.2631286 -0.5873645,-0.5873656 z"
     fill="#010101"
     fill-rule="evenodd"
     id="path11954"
     style="stroke-width:0.0258603" />
</svg>
