<?xml version="1.0" standalone="no"?>
<!DOCTYPE svg PUBLIC "-//W3C//DTD SVG 20010904//EN"
 "http://www.w3.org/TR/2001/REC-SVG-20010904/DTD/svg10.dtd">
<svg version="1.0" xmlns="http://www.w3.org/2000/svg"
 width="1280.000000pt" height="1278.000000pt" viewBox="0 0 1280.000000 1278.000000"
 preserveAspectRatio="xMidYMid meet">
<g transform="translate(0.000000,1278.000000) scale(0.100000,-0.100000)"
fill="#000000" stroke="none">
<path d="M11341 12709 c-289 -196 -933 -754 -2089 -1813 -211 -193 -389 -354
-396 -358 -7 -4 -64 28 -131 73 -1218 816 -2680 1101 -4125 804 -305 -63 -631
-162 -908 -276 -81 -34 -156 -63 -168 -66 -17 -4 -35 12 -90 79 -95 115 -225
248 -314 323 -302 251 -555 302 -793 158 -167 -101 -420 -419 -519 -653 -27
-63 -32 -91 -36 -176 -7 -161 37 -403 123 -680 19 -62 35 -117 35 -124 0 -7
-56 -71 -125 -142 -734 -761 -1237 -1757 -1414 -2799 -194 -1135 -39 -2247
460 -3288 l69 -144 -193 -196 c-438 -446 -632 -742 -707 -1076 -24 -105 -24
-163 0 -340 51 -373 196 -688 425 -919 189 -191 408 -310 675 -367 86 -19 137
-23 285 -23 169 0 186 2 270 27 286 88 636 313 1058 680 71 62 132 113 136
115 5 1 53 -24 107 -56 743 -441 1626 -700 2512 -738 l162 -7 44 -61 c115
-161 365 -305 750 -431 285 -94 603 -166 871 -199 72 -9 160 -21 197 -26 125
-19 285 -7 438 32 70 17 154 63 187 101 107 121 122 441 48 964 -14 94 -25
180 -25 190 0 13 28 33 93 67 454 242 854 537 1236 911 1048 1027 1621 2390
1621 3855 0 768 -149 1479 -459 2184 -34 77 -61 145 -61 152 0 7 66 59 148
117 345 244 783 521 1127 712 147 82 615 318 652 329 18 6 30 32 66 144 25 75
74 223 111 327 79 230 101 323 101 435 0 218 -70 578 -175 890 -223 667 -532
1126 -861 1280 -69 32 -242 80 -287 80 -17 0 -65 -26 -131 -71z m-5101 -1894
c697 -86 1323 -299 1900 -645 171 -102 185 -113 174 -132 -13 -22 -1517 -1406
-2209 -2034 -444 -403 -654 -586 -667 -582 -14 5 -483 963 -978 1998 -225 470
-297 610 -457 887 -51 90 -93 167 -93 172 0 5 48 28 108 52 403 157 891 266
1357 303 134 10 736 -3 865 -19z m-3993 -1592 c101 -224 282 -593 465 -950
592 -1153 864 -1815 909 -2216 12 -106 12 -107 -15 -160 -73 -150 -320 -378
-871 -802 -399 -307 -597 -463 -924 -725 -161 -129 -304 -243 -318 -254 -34
-26 -42 -16 -109 139 -185 428 -300 860 -361 1355 -26 210 -26 832 0 1040 96
768 334 1433 735 2050 136 210 426 580 453 580 6 0 22 -26 36 -57z m7818
-1280 c384 -918 464 -1963 225 -2939 -251 -1022 -844 -1936 -1686 -2595 -199
-156 -571 -398 -592 -385 -4 3 -44 94 -87 203 -97 243 -319 690 -540 1088
-258 465 -385 704 -514 964 -125 254 -168 364 -156 403 12 38 93 154 200 288
527 657 1586 1752 2370 2451 297 265 710 609 731 609 6 0 28 -39 49 -87z
m-5134 -4650 c92 -169 400 -788 477 -960 146 -325 237 -569 283 -758 25 -104
25 -155 2 -156 -507 -16 -1172 111 -1728 331 -193 76 -553 254 -562 277 -5 13
26 48 119 138 801 764 1023 966 1241 1131 54 41 104 74 112 74 7 0 32 -35 56
-77z"/>
</g>
</svg>
