<svg width="20" height="20" viewBox="0 0 20 20" xmlns="http://www.w3.org/2000/svg">
    <g stroke="#66A3B7" fill="none" fill-rule="evenodd">
        <path d="M10 .81c.259 0 .518.066.75.2l6.66 3.846a1.5 1.5 0 0 1 .75 1.299v7.69a1.5 1.5 0 0 1-.75 1.3l-6.66 3.845a1.5 1.5 0 0 1-1.5 0l-6.66-3.846a1.5 1.5 0 0 1-.75-1.299v-7.69a1.5 1.5 0 0 1 .75-1.3L9.25 1.01c.232-.134.491-.2.75-.2z"/>
        <path d="m2 5.5 7.02 3.948a2 2 0 0 0 1.96 0L18 5.5M10 19.5V10"/>
        <path stroke-linecap="round" d="M6 12.5v-5L12 4"/>
    </g>
</svg>
