<svg width="20" height="20" viewBox="0 0 20 20" xmlns="http://www.w3.org/2000/svg">
    <g stroke="#96476A" fill="none" fill-rule="evenodd">
        <path d="M6.5 11.5h-4a2 2 0 0 0-2 2v4a2 2 0 0 0 2 2h15a2 2 0 0 0 2-2v-4a2 2 0 0 0-2-2h-7 0M3.5 14.5h1M6.5 14.5h10" stroke-linecap="round"/>
        <path d="M13.5 15v.75a.75.75 0 1 0 1.5 0V15"/>
        <path d="M2 11.5v-1a8 8 0 1 1 16 0v1h0" stroke-linecap="round"/>
        <path d="M13.5 3A1.5 1.5 0 0 1 15 1.5h.5a2 2 0 0 1 2 2v4h0M6.5 3A1.5 1.5 0 0 0 5 1.5h-.5a2 2 0 0 0-2 2v4h0M5.5 9.5v-1a2 2 0 0 1 2-2h5a2 2 0 0 1 2 2v1h0" stroke-linecap="round"/>
        <path d="M8.5 2.5v-1a1 1 0 0 1 1-1h1a1 1 0 0 1 1 1v1"/>
    </g>
</svg>
