<svg width="16" height="16" xmlns="http://www.w3.org/2000/svg">
    <g transform="rotate(45 8.207 12.328)" stroke="#000000" fill="none" fill-rule="evenodd">
        <path d="M5 1.061c.332 0 .663.11.937.329l3 2.4A1.5 1.5 0 0 1 9.5 4.96V14c0 .414-.168.79-.44 1.06-.27.272-.646.44-1.06.44H2c-.414 0-.79-.168-1.06-.44A1.495 1.495 0 0 1 .5 14V4.961a1.5 1.5 0 0 1 .563-1.171l3-2.4c.274-.22.605-.329.937-.329z"/>
        <path stroke-linecap="round" d="M2.5 8.5h5M2.5 12.5h4M2.5 10.5h3"/>
        <circle cx="5" cy="4.5" r="1"/>
    </g>
</svg>
