<svg width="20" height="20" viewBox="0 0 20 20" xmlns="http://www.w3.org/2000/svg">
    <g stroke="#734242" transform="translate(1.5 1)" fill="none" fill-rule="evenodd">
        <circle cx="3.5" cy="16" r="2.5"/>
        <circle cx="13.5" cy="16" r="2.5"/>
        <path d="M6 17c.833.667 1.667 1 2.5 1s1.667-.333 2.5-1"/>
        <path d="M3.5 13.5c0-1.25.333-2.25 1-3M13.5 13.5c0-1.25-.333-2.25-1-3" stroke-linecap="round"/>
        <path d="M6 12.5c.833-.667 1.667-1 2.5-1s1.667.333 2.5 1" stroke-linecap="round" stroke-linejoin="round"/>
        <path d="M3.5 12a1.659 1.659 0 0 1-1.647-2.511L2 9.25a3.078 3.078 0 0 1 4.302-.966C7.034 8.761 7.767 9 8.5 9c.733 0 1.466-.239 2.198-.716A3.078 3.078 0 0 1 15 9.25l.147.239A1.659 1.659 0 0 1 13.5 12M5 7.5l-.489-1.712a4.149 4.149 0 1 1 7.978 0L12 7.5"/>
        <circle cx="8.5" cy="5.5" r="1"/>
        <path stroke-linecap="round" d="M8.5 6.5v-1"/>
        <path d="M10.5 1a1 1 0 0 1 1-1h.5a1.5 1.5 0 0 1 1.5 1.5V2a1 1 0 0 1-1 1M6.5 1a1 1 0 0 0-1-1H5a1.5 1.5 0 0 0-1.5 1.5V2a1 1 0 0 0 1 1"/>
    </g>
</svg>
