<svg width="20" height="20" viewBox="0 0 20 20" xmlns="http://www.w3.org/2000/svg">
    <g stroke="#C91444" fill="none" fill-rule="evenodd">
        <path d="M1.5 4.5v4.613a3 3 0 0 0 2.325 2.924l3.616.834a2 2 0 0 1 .965.535L10 15a9.862 9.862 0 0 1 4.756-2.636l1.419-.327A3 3 0 0 0 18.5 9.113V4.5l-1.435.717A7.413 7.413 0 0 1 13.75 6h-.093a4 4 0 0 0-2.829 1.172L10 8l-.828-.828A4 4 0 0 0 6.343 6H6.25a7.413 7.413 0 0 1-3.315-.783L1.5 4.5z" stroke-linejoin="round"/>
        <path d="M11.5 11v-1a2 2 0 0 1 2-2H16a2 2 0 0 1-2 2h-.882c-.685 0-1.312.387-1.618 1zM8.5 11v-1a2 2 0 0 0-2-2H4a2 2 0 0 0 2 2h.882c.685 0 1.312.387 1.618 1zM7 6l-.5-2h2L10 2l1.5 2h2L13 6" stroke-linejoin="round"/>
        <path stroke-linecap="round" d="M16.5 13.5v6"/>
    </g>
</svg>
