<svg width="21" height="20" xmlns="http://www.w3.org/2000/svg">
    <path d="M8.154 1.845a3.05 3.05 0 0 1 5.842.985c0 4.546 2.26 3.793 2.253 7.926 0 4.58-5.312 9.244-5.312 9.244s-5.311-4.657-5.311-9.244a5.311 5.311 0 0 1 5.311-5.311h.075a2.281 2.281 0 1 0-2.354-2.306v.068a1.931 1.931 0 0 1-1.231 1.779 2.747 2.747 0 0 0-1.538-1.963L4.875 2.54l.024-.014c.688-.707 1.696-1.001 2.656-.775l.58.137c.004-.014.019-.029.019-.043zm2.792 5.595a3.044 3.044 0 0 0-3.044 2.959c0 2.206 2.026 4.555 3.042 5.598 1.02-1.043 3.045-3.392 3.045-5.598a3.044 3.044 0 0 0-3.043-2.96zm-.002 1.609a1.313 1.313 0 1 1 .005 2.627 1.313 1.313 0 0 1-.005-2.627zm.044-6.5a.529.529 0 1 1 0 1.058.529.529 0 0 1 0-1.057z" fill="#c91444" fill-rule="nonzero"/>
</svg>
