<svg width="24" height="24" viewBox="0 0 24 24" xmlns="http://www.w3.org/2000/svg">
    <g fill="#c91444" fill-rule="evenodd">
        <path d="m14 17.2-4.342 3.731a.5.5 0 0 1-.808-.512L10.4 14.8l-4.026-2.684a.5.5 0 0 1 .277-.916H11.6l1.926-5.777a.5.5 0 0 1 .948 0L16.4 11.2h4.949a.5.5 0 0 1 .277.916L17.6 14.8l1.55 5.619a.5.5 0 0 1-.808.512L14 17.2z"/>
        <path d="m5 18.4-1.116.959a.3.3 0 0 1-.484-.308l.4-1.451-.976-.65a.3.3 0 0 1 .167-.55H4.2l.515-1.546a.3.3 0 0 1 .57 0L5.8 16.4h1.21a.3.3 0 0 1 .166.55l-.976.65.4 1.451a.3.3 0 0 1-.484.308L5 18.4z" opacity=".5"/>
        <path d="M8 7.867 6.264 9.359a.3.3 0 0 1-.485-.308L6.4 6.8 4.824 5.75a.3.3 0 0 1 .167-.55h1.942l.782-2.346a.3.3 0 0 1 .57 0L9.067 5.2h1.942a.3.3 0 0 1 .167.55L9.6 6.8l.621 2.251a.3.3 0 0 1-.485.308L8 7.867z" opacity=".75"/>
    </g>
</svg>
