<svg width="20" height="20" viewBox="0 0 20 20" xmlns="http://www.w3.org/2000/svg">
    <g stroke="#579BE4" transform="translate(0 1.5)" fill="none" fill-rule="evenodd">
        <path d="M19.5 12.5v2h-3.528a2 2 0 0 1-.894-.211L14.5 14h-9l-.578.289a2 2 0 0 1-.894.211H.5V8.062a2 2 0 0 1 1.515-1.94L2.5 6l1.121-4.485A2 2 0 0 1 5.561 0h8.877a2 2 0 0 1 1.94 1.515L17.5 6l.485.121a2 2 0 0 1 1.515 1.94V12.5z"/>
        <path d="M.5 14.5V16a1 1 0 0 0 1 1h2a1 1 0 0 0 1-1v-.5h0v-1M15.5 14.5V16a1 1 0 0 0 1 1h2a1 1 0 0 0 1-1v-1.5h0M.5 12h19" stroke-linecap="round"/>
        <circle cx="3.5" cy="9" r="1"/>
        <circle cx="16.5" cy="9" r="1"/>
        <path d="M2.5 6h15"/>
        <path d="M12 4.5a1.5 1.5 0 0 1 3 0h0" stroke-linecap="round"/>
    </g>
</svg>
