<svg width="20" height="20" xmlns="http://www.w3.org/2000/svg">
    <g transform="translate(2 .5)" stroke="#FFF" fill="none" fill-rule="evenodd">
        <path stroke-linecap="round" d="m.5 19 4-4M15.5 19l-4-4M0 17.5h16"/>
        <path d="M.5 2v11a2 2 0 0 0 2 2h11a2 2 0 0 0 2-2V2a2 2 0 0 0-2-2h-11a2 2 0 0 0-2 2z"/>
        <circle cx="3.5" cy="12" r="1"/>
        <circle cx="12.5" cy="12" r="1"/>
        <path stroke-linecap="round" d="M4.5 1.5h1M7.5 1.5h4"/>
        <path d="M1 9h14"/>
    </g>
</svg>
