<svg width="20" height="21" xmlns="http://www.w3.org/2000/svg">
    <defs>
        <linearGradient x1="0%" y1="50.013%" x2="100.064%" y2="50.013%" id="a">
            <stop stop-color="#AA0C54" offset="0%"/>
            <stop stop-color="#CD1543" offset="100%"/>
        </linearGradient>
    </defs>
    <g fill="none" fill-rule="evenodd">
        <g transform="translate(-.947 -1.072)">
            <path d="M5.3 1.553A3.75 3.75 0 0 1 9.05 5.3l.003 3.753L5.3 9.05A3.75 3.75 0 0 1 1.553 5.3 3.747 3.747 0 0 1 5.3 1.553z" fill="url(#a)" transform="rotate(45 5.303 5.303)"/>
            <circle fill="#FFF" cx="5.322" cy="5.322" r="1.875"/>
        </g>
        <path stroke="#C91444" stroke-linecap="round" d="M16.562 20.187h-3.75M2.812 10.187h2.5"/>
        <path d="M6.563 10.188h5c1.725 0 3.125 1.399 3.125 3.125a2.562 2.562 0 0 1-3.065 2.512L5.252 14.55a2.562 2.562 0 0 0-3.064 2.513c0 1.725 1.399 3.125 3.125 3.125h6.562" stroke="#201C1E" stroke-linecap="round" stroke-dasharray="1,2"/>
        <g transform="translate(5.625 2.45)">
            <path d="M8.392 2.46a5.937 5.937 0 0 1 5.937 5.932l.005 5.942-5.942-.005a5.937 5.937 0 0 1-5.933-5.937 5.932 5.932 0 0 1 5.933-5.933z" fill="url(#a)" transform="rotate(45 8.397 8.397)"/>
            <circle fill="#FFF" cx="8.438" cy="8.362" r="3.438"/>
        </g>
    </g>
</svg>
