<?xml version="1.0" ?><!DOCTYPE svg  PUBLIC '-//W3C//DTD SVG 1.1//EN'  'http://www.w3.org/Graphics/SVG/1.1/DTD/svg11.dtd'><svg enable-background="new 0 0 512 512" id="Layer_1" version="1.1" viewBox="0 0 512 512" xml:space="preserve" xmlns="http://www.w3.org/2000/svg" xmlns:xlink="http://www.w3.org/1999/xlink"><g><path d="M308.6,258l35.1-35.1c7.7-7.7,8.2-19.8,1.6-28.1c0,0-0.1-0.1-0.1-0.1l2.7,2.7l23.5-23.5c6.6-6.6,6.6-17.3,0-23.9l-9.4-9.4   c-6.6-6.6-17.3-6.6-23.9,0L314.6,164l2.7,2.7c0,0-0.1-0.1-0.1-0.1c-8.3-6.6-20.4-6.1-28.1,1.6L254,203.4l0.1,0.1   c-37.7-16.1-83-8.8-113.7,21.9L186,271c-12,15.4-11,37.7,3.2,51.8c14.2,14.2,36.5,15.2,51.8,3.2l45.6,45.6   c30.8-30.8,38-76,21.9-113.7L308.6,258z"/><path d="M428.6,278l-49.4-49.4L338,269.8l68.9,68.9l21.7-21.7C439.4,306.2,439.4,288.8,428.6,278z"/><path d="M283.4,132.8L234,83.4c-10.8-10.8-28.2-10.8-39,0l-21.7,21.7l68.9,68.9L283.4,132.8z"/><path d="M201.9,374c-35.2,0-63.9-28.7-63.9-63.9c0-5-4.1-9.1-9.1-9.1c-5,0-9.1,4.1-9.1,9.1c0,45.2,36.8,82,82,82   c5,0,9.1-4.1,9.1-9.1C211,378,206.9,374,201.9,374z"/><path d="M201.9,418.6c-59.8,0-108.5-48.7-108.5-108.5c0-5-4.1-9.1-9.1-9.1c-5,0-9.1,4.1-9.1,9.1c0,69.8,56.8,126.6,126.6,126.6   c5,0,9.1-4.1,9.1-9.1C211,422.6,206.9,418.6,201.9,418.6z"/></g></svg>