<?xml version="1.0" encoding="UTF-8" standalone="no"?>
<svg
   height="189.17599"
   version="1.1"
   viewBox="0 0 459.94299 189.17599"
   width="459.94299"
   xml:space="preserve"
   id="svg14"
   sodipodi:docname="youtube-2.svg"
   inkscape:version="1.2.2 (b0a8486541, 2022-12-01)"
   xmlns:inkscape="http://www.inkscape.org/namespaces/inkscape"
   xmlns:sodipodi="http://sodipodi.sourceforge.net/DTD/sodipodi-0.dtd"
   xmlns="http://www.w3.org/2000/svg"
   xmlns:svg="http://www.w3.org/2000/svg"><defs
     id="defs18" /><sodipodi:namedview
     id="namedview16"
     pagecolor="#ffffff"
     bordercolor="#000000"
     borderopacity="0.25"
     inkscape:showpageshadow="2"
     inkscape:pageopacity="0.0"
     inkscape:pagecheckerboard="0"
     inkscape:deskcolor="#d1d1d1"
     showgrid="false"
     inkscape:zoom="1.4511719"
     inkscape:cx="229.46972"
     inkscape:cy="94.40646"
     inkscape:window-width="2560"
     inkscape:window-height="1355"
     inkscape:window-x="0"
     inkscape:window-y="0"
     inkscape:window-maximized="1"
     inkscape:current-layer="svg14" /><g
     id="形状_1_3_"
     style="enable-background:new"
     transform="translate(-26.053,-161.14)"><g
       id="形状_1"><g
         id="g4"><path
           d="M 58.442,241.547 45.394,193.339 H 26.053 c 3.873,11.386 7.907,22.816 11.784,34.205 5.895,17.121 9.57,30.03 11.236,38.833 v 49.719 H 67.457 V 266.377 L 89.568,193.339 H 70.982 Z m 124.967,-16.928 v 69.916 c -3.672,5.191 -7.15,7.759 -10.464,7.759 -2.225,0 -3.526,-1.314 -3.892,-3.88 -0.2,-0.542 -0.2,-2.56 -0.2,-6.444 V 224.619 H 152.33 v 72.337 c 0,6.457 0.556,10.828 1.471,13.601 1.653,4.633 5.336,6.799 10.671,6.799 6.046,0 12.34,-3.674 18.937,-11.237 v 9.978 h 16.578 V 224.62 h -16.578 z m -69.205,-1.1 c -8.257,0 -14.711,3.119 -19.292,9.375 -3.526,4.622 -5.193,11.771 -5.193,21.549 v 32.037 c 0,9.722 1.667,16.934 5.193,21.511 4.582,6.238 11.036,9.365 19.292,9.365 8.306,0 14.756,-3.127 19.341,-9.365 3.475,-4.577 5.144,-11.789 5.144,-21.511 v -32.037 c 0,-9.777 -1.669,-16.927 -5.144,-21.549 -4.585,-6.256 -11.035,-9.375 -19.341,-9.375 z m 7.907,66.079 c 0,8.465 -2.563,12.696 -7.907,12.696 -5.344,0 -7.91,-4.231 -7.91,-12.696 v -38.481 c 0,-8.463 2.566,-12.684 7.91,-12.684 5.345,0 7.907,4.221 7.907,12.684 z"
           style="clip-rule:evenodd;fill:#1b1b1b;fill-rule:evenodd"
           id="path2" /></g></g></g><g
     id="形状_1_2_"
     style="enable-background:new"
     transform="translate(-26.053,-161.14)"><g
       id="形状_1_1_"><g
         id="g10"><path
           d="m 441.2,239.52 c -5.486,0 -8.222,4.178 -8.222,12.55 v 8.384 h 16.4 v -8.384 c 0.001,-8.373 -2.748,-12.55 -8.178,-12.55 z m -60.864,0 c -2.696,0 -5.432,1.283 -8.177,3.989 v 55.172 c 2.745,2.742 5.48,4.036 8.177,4.036 4.731,0 7.14,-4.036 7.14,-12.214 v -38.628 c 0,-8.178 -2.409,-12.355 -7.14,-12.355 z m 100.963,-47.949 c -3.319,-14.435 -15.128,-25.081 -29.337,-26.669 -31.583,-3.528 -63.526,-3.762 -95.37,-3.762 -2.088,0 -4.178,0.002 -6.265,0.002 -2.088,0 -4.175,-0.002 -6.264,-0.002 -31.843,0 -63.789,0.233 -95.37,3.762 -14.21,1.588 -26.012,12.234 -29.332,26.669 -4.724,20.558 -4.779,42.993 -4.779,64.158 v 1.519 c 0.002,20.719 0.113,42.569 4.725,62.638 3.32,14.434 15.121,25.08 29.331,26.667 31.618,3.534 63.595,3.763 95.475,3.763 2.053,0 4.108,0 6.159,-0.002 2.054,0.002 4.104,0.002 6.158,0.002 31.879,0 63.86,-0.229 95.476,-3.763 14.21,-1.587 26.018,-12.233 29.338,-26.667 4.657,-20.268 4.75,-42.359 4.752,-63.261 v -0.896 c 0,-21.165 0.027,-43.6 -4.697,-64.158 z M 292,211.995 H 272.358 V 316.38 H 254.11 V 211.995 H 234.818 V 194.891 H 292 Z m 49.56,104.385 h -16.406 v -9.874 c -6.52,7.479 -12.716,11.12 -18.746,11.12 -5.284,0 -8.927,-2.146 -10.568,-6.729 -0.893,-2.742 -1.444,-7.073 -1.444,-13.462 v -71.583 h 16.396 v 66.65 c 0,3.844 0,5.838 0.152,6.38 0.399,2.541 1.647,3.835 3.839,3.835 3.292,0 6.73,-2.534 10.371,-7.672 v -69.193 h 16.406 z m 62.31,-27.173 c 0,8.378 -0.56,14.41 -1.646,18.248 -2.2,6.729 -6.584,10.171 -13.113,10.171 -5.831,0 -11.471,-3.24 -16.951,-10.021 v 8.774 h -16.4 V 194.891 h 16.399 v 39.68 c 5.296,-6.518 10.919,-9.813 16.951,-9.813 6.529,0 10.913,3.436 13.113,10.215 1.087,3.643 1.646,9.626 1.646,18.192 v 36.042 z m 61.901,-15.103 h -32.793 v 16.053 c 0,8.378 2.735,12.561 8.37,12.561 4.044,0 6.392,-2.195 7.329,-6.584 0.149,-0.894 0.36,-4.529 0.36,-11.108 h 16.733 v 2.396 c 0,5.276 -0.195,8.925 -0.349,10.561 -0.547,3.643 -1.835,6.931 -3.833,9.832 -4.534,6.572 -11.264,9.813 -19.83,9.813 -8.58,0 -15.11,-3.088 -19.853,-9.272 -3.486,-4.53 -5.274,-11.667 -5.274,-21.286 v -31.702 c 0,-9.674 1.59,-16.751 5.073,-21.329 4.744,-6.196 11.272,-9.279 19.643,-9.279 8.229,0 14.76,3.083 19.354,9.279 3.435,4.578 5.069,11.655 5.069,21.329 v 18.736 z"
           style="clip-rule:evenodd;fill:#a62423;fill-rule:evenodd"
           id="path8" /></g></g></g></svg>
