<svg width="32" height="32" xmlns="http://www.w3.org/2000/svg">
    <g fill-rule="nonzero" fill="none">
        <path d="M24.836 31.6a5.988 5.988 0 0 1-5.981-5.981 5.988 5.988 0 0 1 5.981-5.982 5.988 5.988 0 0 1 5.982 5.982 5.988 5.988 0 0 1-5.982 5.981zm0-11.02a5.045 5.045 0 0 0-5.039 5.039c0 2.778 2.26 5.04 5.04 5.04 2.778 0 5.039-2.262 5.039-5.04 0-2.779-2.26-5.04-5.04-5.04z" fill="#C91444"/>
        <path d="M24.836 20.108a5.51 5.51 0 1 1 0 11.021 5.51 5.51 0 0 1 0-11.02m0-.872a6.389 6.389 0 0 0-6.38 6.382A6.388 6.388 0 0 0 24.835 32a6.389 6.389 0 0 0 6.382-6.381 6.389 6.389 0 0 0-6.382-6.382z" fill="#50555A"/>
        <path d="M24.836 19.237h-.028v.872h.028a5.51 5.51 0 0 1 0 11.02h-.028v.87l.028.001a6.389 6.389 0 0 0 6.382-6.381 6.389 6.389 0 0 0-6.382-6.382z" fill="#201C1E"/>
        <path d="M24.836 24.093c-.84 0-1.525.684-1.525 1.526 0 .841.684 1.526 1.525 1.526.842 0 1.526-.685 1.526-1.526 0-.842-.684-1.526-1.526-1.526z" fill="#B9B9BE"/>
        <path d="M24.836 24.093c-.84 0-1.525.684-1.525 1.526 0 .841.684 1.526 1.525 1.526.842 0 1.526-.685 1.526-1.526 0-.842-.684-1.526-1.526-1.526z" fill="#BEC7CA"/>
        <path d="M6.381 31.6A5.988 5.988 0 0 1 .4 25.62a5.988 5.988 0 0 1 5.981-5.982 5.988 5.988 0 0 1 5.982 5.982A5.988 5.988 0 0 1 6.38 31.6zm0-11.02a5.045 5.045 0 0 0-5.04 5.039c0 2.778 2.262 5.04 5.04 5.04 2.779 0 5.04-2.262 5.04-5.04 0-2.779-2.261-5.04-5.04-5.04z" fill="#C91444"/>
        <path d="M6.381 20.108a5.51 5.51 0 1 1 0 11.021 5.51 5.51 0 0 1 0-11.02M0 25.618A6.388 6.388 0 0 0 6.381 32a6.389 6.389 0 0 0 6.382-6.381 6.389 6.389 0 0 0-6.382-6.382A6.388 6.388 0 0 0 0 25.62z" fill="#50555A"/>
        <path d="M6.381 19.237h-.028v.872h.028a5.51 5.51 0 0 1 0 11.02h-.028v.87L6.38 32a6.389 6.389 0 0 0 6.382-6.381 6.388 6.388 0 0 0-6.382-6.382z" fill="#201C1E"/>
        <path d="M6.381 24.093c-.841 0-1.526.684-1.526 1.526 0 .841.685 1.526 1.526 1.526.842 0 1.526-.685 1.526-1.526 0-.842-.684-1.526-1.526-1.526z" fill="#B9B9BE"/>
        <path d="M12.932 25.525a.721.721 0 0 1-.667-.445l-3.843-9.267a.721.721 0 1 1 1.333-.553l3.843 9.268a.721.721 0 0 1-.666.997z" fill="#BEC7CA"/>
        <path d="M12.931 25.525a.721.721 0 0 1-.532-1.208l7.029-7.691-10.132.836-3.486 6.62h3.503a.721.721 0 1 1 0 1.443H4.615a.721.721 0 0 1-.638-1.057l4.227-8.028a.721.721 0 0 1 .579-.383l12.358-1.02a.722.722 0 0 1 .591 1.205l-8.268 9.048a.72.72 0 0 1-.533.235z" fill="#BEC7CA"/>
        <path d="M11.395 16.321H6.632a1.096 1.096 0 0 1 0-2.192h4.763a1.096 1.096 0 0 1 0 2.192z" fill="#B9CDD2"/>
        <path d="M24.24 25.525a.721.721 0 0 1-.684-.494l-4.208-12.666a.721.721 0 0 1 .538-.933l3.257-.678a.721.721 0 0 1 .294 1.412l-2.464.513 3.952 11.897a.721.721 0 0 1-.684.95zM12.385 26.276a1.57 1.57 0 0 1-.925-2.02l2.41-6.484-4.808-3.177a1.57 1.57 0 1 1 1.731-2.62l5.85 3.864c.61.402.86 1.172.606 1.857l-2.846 7.655a1.57 1.57 0 0 1-2.018.925z" fill="#BEC7CA"/>
        <path d="m18.222 7.235-2.33-2.476a1.951 1.951 0 0 0-2.843.002l-5.59 5.953a2.065 2.065 0 0 0 .39 3.151l3.856 2.476 1.353.893 2.279-2.258-1.346-.89 4.181-4.124a1.951 1.951 0 0 0 .05-2.727z" fill="#C91444"/>
        <path d="M6.928 11.78c.068-.396.25-.768.53-1.066l5.59-5.953a1.951 1.951 0 0 1 2.844-.002l2.33 2.476a1.951 1.951 0 0 1-.05 2.726l-4.182 4.126-7.062-2.307z" fill="#640D24"/>
        <circle fill="#BEC7CA" cx="20.387" cy="3.229" r="2.888"/>
        <path d="M15.928.436c.25-.699 1.653-.238 3.241-.383 2.447-.222 3.658.238 4.496 1.595.322.522.259 1.226.148 1.843a.376.376 0 0 1-.5.285c-3.832-1.409-7.904-1.89-7.385-3.34z" fill="#C91444"/>
        <path d="M17.674 12.128a1.308 1.308 0 0 1-.929-.595l-3.42-5.377a1.309 1.309 0 1 1 2.208-1.405l3.044 4.786 4.526.09a1.308 1.308 0 1 1-.053 2.617l-5.227-.105c-.05 0-.1-.005-.149-.011z" fill="#BEC7CA"/>
        <path d="m15.02 8.822 2.171-1.464-1.658-2.607a1.309 1.309 0 0 0-2.208 1.405l1.696 2.666z" fill="#C91444"/>
    </g>
</svg>
