<svg width="32" height="32" xmlns="http://www.w3.org/2000/svg">
    <g fill-rule="nonzero" fill="none">
        <path d="M31.039 6.462h-1.65a.503.503 0 0 0-.503.503v2.75l-1.425 1.409.121.81 1.696-1.533a.5.5 0 0 0 .112.014h1.65a.503.503 0 0 0 .503-.503V6.965a.503.503 0 0 0-.504-.503zM.961 6.462h1.65c.278 0 .503.226.503.503v2.75l1.425 1.409-.12.809L2.722 10.4a.5.5 0 0 1-.112.013H.96a.503.503 0 0 1-.503-.503V6.965c0-.277.225-.503.503-.503zM29.785 23.97l-3.377-.012a.69.69 0 0 0-.69.69l.012 6.227c0 .381.309.69.69.69h3.365a.69.69 0 0 0 .69-.69V24.66a.69.69 0 0 0-.69-.69zM5.683 23.97l-3.377-.012a.69.69 0 0 0-.691.69l.012 6.227c0 .382.31.69.69.69h3.366a.69.69 0 0 0 .69-.69v-6.214a.69.69 0 0 0-.69-.69z" fill="#201C1E"/>
        <path d="M27.303 2.008C27.2 1.287 26.641.747 25.97.721a89.056 89.056 0 0 0-19.94 0c-.67.026-1.23.566-1.333 1.287L2.949 14.325l1.666 8.837h22.77l1.666-8.837-1.748-12.317z" fill="#C91444"/>
        <path d="M26.975 10.788a96.336 96.336 0 0 0-12.618-.627c-.304.004-.607.01-.91.024-.492.01-.984.026-1.477.047-2.31.098-4.623.284-6.94.556l1.06-9.313.05-.003.038.003A69.203 69.203 0 0 1 15.89.788h.01c.478 0 .96.003 1.44.017.297.003.595.013.893.023.237.007.477.017.715.031a73.17 73.17 0 0 1 6.88.62l.047.003.045.004 1.055 9.302z" fill="#BEC7CA"/>
        <path d="M27.61 13.444a1.846 1.846 0 0 0-1.483-1.562c-3.183-.604-10.106-.56-10.127-.56-.021 0-6.944-.044-10.127.56a1.846 1.846 0 0 0-1.483 1.562l-.487 3.506 2.588 6.212h19.018l2.588-6.212-.487-3.506z" fill="#FFF" opacity=".201"/>
        <path d="M26.117 16.369c-.286-1.941-.741-2.717-2.859-3.235-2.113-.516-7.238-.58-7.258-.58-.02.002-5.145.064-7.258.58-2.117.518-2.573 1.294-2.86 3.235-.286 1.94.273 4.344.273 4.344h19.69s.559-2.403.273-4.344zM30.587 15.076l-2.38-.378a.959.959 0 0 0-1.085.735l-.278 1.225a.96.96 0 0 0-.024.212v5.333c0 .53.43.959.96.959h2.657c.53 0 .96-.43.96-.96v-6.179a.96.96 0 0 0-.81-.947zM1.413 15.076l2.38-.378a.959.959 0 0 1 1.085.735l.278 1.225a.96.96 0 0 1 .024.212v5.333a.96.96 0 0 1-.96.959H1.564a.96.96 0 0 1-.96-.96v-6.179a.96.96 0 0 1 .81-.947z" fill="#C91444"/>
        <path d="M.487 20.042c-.27 0-.487.282-.487.63v2.802c0 .416.127.814.354 1.109.227.294.535.459.856.459h29.58c.321 0 .629-.165.856-.46A1.83 1.83 0 0 0 32 23.475v-2.802c0-.348-.218-.63-.486-.63H.486z" fill="#BEC7CA"/>
        <path d="M22.838 14.611a1.5 1.5 0 1 0 0 3 1.5 1.5 0 0 0 0-3zM9.162 14.611a1.5 1.5 0 1 0 0 3 1.5 1.5 0 0 0 0-3zM28.9 21.077a.894.894 0 1 0 0 1.787.894.894 0 0 0 0-1.787zM3.1 21.077a.893.893 0 1 0 0 1.787.893.893 0 0 0 0-1.787z" fill="#FFF"/>
        <g fill="#201C1E">
            <path d="M12.59 14.686a.459.459 0 0 0-.459.46v3.814a.459.459 0 1 0 .918 0v-3.815a.459.459 0 0 0-.459-.459zM14.295 14.686a.459.459 0 0 0-.459.46v3.814a.459.459 0 0 0 .918 0v-3.815a.459.459 0 0 0-.459-.459zM16 14.686a.459.459 0 0 0-.459.46v3.814a.459.459 0 0 0 .918 0v-3.815a.459.459 0 0 0-.459-.459zM17.705 14.686a.459.459 0 0 0-.459.46v3.814a.459.459 0 0 0 .918 0v-3.815a.459.459 0 0 0-.459-.459zM19.41 14.686a.459.459 0 0 0-.46.46v3.814a.459.459 0 1 0 .918 0v-3.815a.459.459 0 0 0-.458-.459z"/>
        </g>
        <g opacity=".25" fill="#FFF">
            <path d="m17 1.016-3.624 8.939c-.459.01-.917.025-1.376.045l3.65-9h.01c.444 0 .893.003 1.34.016zM19 1.03l-4.202 8.963c-.267 0-.534.004-.798.007l4.221-9c.259.007.52.016.779.03z"/>
        </g>
    </g>
</svg>
