<svg width="33" height="32" xmlns="http://www.w3.org/2000/svg">
    <g transform="translate(6.937)" fill-rule="nonzero" fill="none">
        <path d="m17.078 17.526-4.307-3.573a1.263 1.263 0 0 1-.16-.159L8.4 8.797a1.266 1.266 0 0 1 1.937-1.632l4.139 4.91 4.22 3.502a1.266 1.266 0 0 1-1.617 1.95z" fill="#BEC7CA"/>
        <path d="m12.173 6.619-3.325-.286a1.869 1.869 0 0 0-2.022 1.701l-.792 9.213c-.02.225-.012.451.022.675l.863 5.69-2.397 6.353a1.504 1.504 0 0 0 2.814 1.062L9.873 24.3c.092-.243.119-.507.079-.764l-.798-6.074 3.959.364.762-9.192a1.869 1.869 0 0 0-1.702-2.016z" fill="#C91444"/>
        <path d="m14.038 30.83-1.672-7.353-2.627-5.812a1.504 1.504 0 0 1 2.74-1.239l2.69 5.95c.042.093.074.188.096.287l1.705 7.5a1.504 1.504 0 0 1-2.932.666z" fill="#C91444"/>
        <path d="m13.113 17.827-7.073-.65.786-9.143a1.868 1.868 0 0 1 2.022-1.701l3.325.286a1.868 1.868 0 0 1 1.702 2.016l-.762 9.192z" fill="#640D24"/>
        <circle fill="#BEC7CA" cx="11.308" cy="2.766" r="2.766"/>
        <path d="M2.954 17.392a1.266 1.266 0 0 1-.125-.403l-.677-5.022c-.057-.42.1-.842.42-1.122l4.642-4.076a1.268 1.268 0 1 1 1.674 1.906l-4.131 3.627.586 4.348a1.268 1.268 0 0 1-2.389.742z" fill="#BEC7CA"/>
        <path d="M9.004 6.885a1.268 1.268 0 0 0-1.79-.116L5.222 8.518l1.662 1.916 2.003-1.759a1.268 1.268 0 0 0 .117-1.79z" fill="#C91444"/>
    </g>
</svg>
