<svg width="20" height="20" viewBox="0 0 20 20" fill="none" xmlns="http://www.w3.org/2000/svg">
<path d="M19.5 5V18C19.5 18.2761 19.2761 18.5 19 18.5H1C0.723858 18.5 0.5 18.2761 0.5 18V5C0.5 4.72386 0.723858 4.5 1 4.5H2.46482C2.96635 4.5 3.43469 4.24935 3.71289 3.83205L5.11916 1.72265C5.21189 1.58355 5.36801 1.5 5.53518 1.5H9.46482C9.63199 1.5 9.78811 1.58355 9.88084 1.72265L11.2871 3.83205C11.5653 4.24935 12.0337 4.5 12.5352 4.5H19C19.2761 4.5 19.5 4.72386 19.5 5Z" stroke="#640D24"/>
<circle cx="8" cy="11" r="5.5" stroke="#640D24"/>
<path d="M12 11C12 8.79086 10.2091 7 8 7" stroke="#640D24" stroke-linecap="round"/>
<path d="M14.5 3H17.5" stroke="#640D24" stroke-linecap="round" stroke-linejoin="round"/>
<circle cx="17" cy="7" r="1" fill="#640D24"/>
</svg>
