<svg width="20" height="20" viewBox="0 0 20 20" fill="none" xmlns="http://www.w3.org/2000/svg">
<g clip-path="url(#clip0_2_171)">
<line x1="0.5" y1="19.5" x2="19.5" y2="19.5" stroke="#579BE4" stroke-linecap="round"/>
<path d="M1 18L1 3C1 1.89543 1.89543 1 3 1L9 1C10.1046 1 11 1.89543 11 3V18" stroke="#579BE4" stroke-linecap="round"/>
<line x1="1.5" y1="10.5" x2="10.5" y2="10.5" stroke="#579BE4" stroke-linecap="round"/>
<line x1="3.5" y1="12.5" x2="4.5" y2="12.5" stroke="#579BE4" stroke-linecap="round"/>
<path d="M6 4L5 6H6.5L5.5 8.5" stroke="#579BE4" stroke-linecap="round"/>
<path d="M11 6V6C11.8284 6 12.5 6.67157 12.5 7.5V14.25C12.5 15.2165 13.2835 16 14.25 16V16C15.2165 16 16 15.2165 16 14.25V7" stroke="#579BE4" stroke-linecap="round"/>
<path d="M18 5C18 6.10457 17.1046 7 16 7C14.8954 7 14 6.10457 14 5M15 4V2" stroke="#579BE4" stroke-linecap="round"/>
<path d="M17 4V2" stroke="#579BE4" stroke-linecap="round"/>
</g>
<defs>
<clipPath id="clip0_2_171">
<rect width="20" height="20" fill="white"/>
</clipPath>
</defs>
</svg>
