<?xml version="1.0" encoding="UTF-8" standalone="no"?>
<svg
   data-name="Layer 1"
   viewBox="0 0 20 20"
   version="1.1"
   id="svg3698"
   sodipodi:docname="parking.svg"
   width="20"
   height="20"
   inkscape:version="1.2.1 (9c6d41e410, 2022-07-14, custom)"
   xmlns:inkscape="http://www.inkscape.org/namespaces/inkscape"
   xmlns:sodipodi="http://sodipodi.sourceforge.net/DTD/sodipodi-0.dtd"
   xmlns="http://www.w3.org/2000/svg"
   xmlns:svg="http://www.w3.org/2000/svg">
  <defs
     id="defs3702" />
  <sodipodi:namedview
     id="namedview3700"
     pagecolor="#ffffff"
     bordercolor="#666666"
     borderopacity="1.0"
     inkscape:showpageshadow="2"
     inkscape:pageopacity="0.0"
     inkscape:pagecheckerboard="0"
     inkscape:deskcolor="#d1d1d1"
     showgrid="false"
     inkscape:zoom="31.583333"
     inkscape:cx="7.4248021"
     inkscape:cy="10.005277"
     inkscape:window-width="2560"
     inkscape:window-height="1359"
     inkscape:window-x="0"
     inkscape:window-y="0"
     inkscape:window-maximized="1"
     inkscape:current-layer="svg3698" />
  <path
     d="M 11,5 H 8 A 1,1 0 0 0 7,6 v 8 a 1,1 0 0 0 2,0 v -2 h 2 A 3,3 0 0 0 14,9 V 8 A 3,3 0 0 0 11,5 Z m 1,4 a 1,1 0 0 1 -1,1 H 9 V 7 h 2 a 1,1 0 0 1 1,1 z M 10,0 A 10,10 0 1 0 20,10 10,10 0 0 0 10,0 Z m 0,18 a 8,8 0 1 1 8,-8 8,8 0 0 1 -8,8 z"
     fill="#6563ff"
     id="path3696" />
</svg>
