<?xml version="1.0" encoding="UTF-8" standalone="no"?>
<svg
   viewBox="0 0 20 20"
   version="1.1"
   id="svg2239"
   sodipodi:docname="parking-garage.svg"
   inkscape:version="1.2.1 (9c6d41e410, 2022-07-14, custom)"
   width="20"
   height="20"
   xmlns:inkscape="http://www.inkscape.org/namespaces/inkscape"
   xmlns:sodipodi="http://sodipodi.sourceforge.net/DTD/sodipodi-0.dtd"
   xmlns="http://www.w3.org/2000/svg"
   xmlns:svg="http://www.w3.org/2000/svg">
  <defs
     id="defs2243" />
  <sodipodi:namedview
     id="namedview2241"
     pagecolor="#ffffff"
     bordercolor="#666666"
     borderopacity="1.0"
     inkscape:showpageshadow="2"
     inkscape:pageopacity="0.0"
     inkscape:pagecheckerboard="0"
     inkscape:deskcolor="#d1d1d1"
     showgrid="false"
     inkscape:zoom="9.475"
     inkscape:cx="17.994723"
     inkscape:cy="35.145119"
     inkscape:window-width="2560"
     inkscape:window-height="1359"
     inkscape:window-x="0"
     inkscape:window-y="0"
     inkscape:window-maximized="1"
     inkscape:current-layer="svg2239" />
  <g
     id="g3515"
     transform="matrix(0.33333333,0,0,0.33333335,-1.6689354,-1.606777)">
    <path
       style="fill:#6563ff;fill-opacity:1;fill-rule:evenodd;stroke:#000000;stroke-width:0.0109378"
       d="M 5.0122762,42.529631 V 20.244399 L 19.138561,12.976117 C 26.908017,8.9785604 33.658954,5.5095253 34.140643,5.2671496 l 0.875798,-0.4406831 14.992449,7.7076895 14.992448,7.70769 V 42.528352 64.81486 H 60.296314 55.59129 V 48.559299 32.303737 H 35.006808 14.422324 V 48.559299 64.81486 H 9.7173005 5.0122762 Z m 6.0622438,2.060531 c 0,-11.832843 0.0295,-17.026434 0.09863,-17.361843 0.05425,-0.26321 0.260378,-0.816692 0.458069,-1.229958 0.649497,-1.357756 1.91133,-2.393722 3.422654,-2.810002 0.674015,-0.185651 0.755838,-0.186415 19.952932,-0.186415 19.197093,0 19.278916,7.22e-4 19.952931,0.186415 1.511324,0.41628 2.773157,1.452246 3.422654,2.810002 0.197691,0.413266 0.403822,0.966748 0.458069,1.229958 0.06912,0.335409 0.09863,5.529 0.09863,17.361843 v 16.883277 h 1.357219 1.357219 l -0.0025,-19.61956 -0.0025,-19.61956 -13.27565,-6.818304 C 41.071297,11.665947 35.056539,8.5977102 35.006775,8.5977102 c -0.04976,0 -6.064524,3.0682368 -13.36613,6.8183048 l -13.2756488,6.818304 -0.00248,19.61956 -0.00248,19.61956 h 1.3572558 1.35722 z M 55.589303,28.397887 c -0.0032,-0.914817 -0.427207,-1.59458 -1.193984,-1.914269 -0.300569,-0.125315 -2.367741,-0.140042 -19.408226,-0.138271 -18.370658,0.0019 -19.085133,0.0082 -19.433752,0.169231 -0.739619,0.341779 -1.131017,1.000324 -1.131017,1.902985 v 0.544754 H 35.006808 55.59129 l -0.0019,-0.56443 z"
       id="path3060" />
    <path
       style="fill:#6563ff;fill-opacity:1;fill-rule:evenodd;stroke:#000000;stroke-width:0.0109378"
       d="m 23.161188,64.59349 c -0.63362,-0.263098 -1.241823,-0.822994 -1.574384,-1.449341 -0.224404,-0.422643 -0.241786,-0.541847 -0.27157,-1.862412 l -0.03182,-1.410866 -0.919689,-0.04588 C 19.811818,59.797451 19.309689,59.720704 19.108095,59.633069 18.599261,59.41188 18.127191,58.951998 17.892397,58.44876 L 17.681415,57.996557 17.680557,53.896878 17.6797,49.797201 17.266652,49.35646 c -0.5883,-0.627741 -0.962482,-1.47204 -1.015105,-2.290471 l -0.04214,-0.655515 0.803012,0.03843 c 2.483981,0.118849 2.456029,0.114501 2.5546,0.396724 0.09467,0.271054 0.615339,0.608822 0.739341,0.479626 0.03982,-0.04149 0.730518,-1.49778 1.534901,-3.236222 0.804384,-1.73844 1.603039,-3.454784 1.774788,-3.814095 0.633042,-1.32436 1.722587,-2.28799 3.160476,-2.795231 l 0.720399,-0.254132 h 7.509889 7.509942 l 0.702906,0.248273 c 1.172239,0.414042 2.003624,1.014706 2.632744,1.902114 0.229277,0.323406 1.109028,2.09987 2.08806,4.216374 0.93052,2.011627 1.720783,3.687215 1.756143,3.723534 0.03535,0.03631 0.205528,-0.0043 0.378152,-0.09031 0.221803,-0.110489 0.322025,-0.22674 0.341687,-0.396353 0.03043,-0.262436 0.0443,-0.264422 2.629733,-0.37601 l 0.757449,-0.0327 -0.04183,0.650506 c -0.05228,0.813106 -0.428042,1.659383 -1.014783,2.285459 l -0.413049,0.440741 -0.0019,4.099678 c -0.0023,4.551378 0.0114,4.438916 -0.623455,5.160576 -0.469196,0.533365 -0.979063,0.724673 -2.059168,0.772619 l -0.934685,0.04148 v 1.249096 c 0,1.052794 -0.0304,1.331236 -0.193451,1.77176 -0.267292,0.722167 -1.014756,1.464636 -1.746017,1.734349 -0.513917,0.189549 -0.64815,0.196882 -3.121602,0.170504 L 41.069094,64.769708 40.556922,64.51867 C 39.941117,64.216846 39.457295,63.705465 39.138548,63.019527 38.925374,62.560781 38.89933,62.383939 38.867632,61.179939 l -0.03508,-1.332053 h -3.825748 -3.825729 l -0.03508,1.33205 c -0.03169,1.204 -0.05774,1.380842 -0.270916,1.839588 -0.318747,0.685938 -0.802569,1.197319 -1.418356,1.499143 l -0.512172,0.251038 -2.623957,0.02306 c -2.607878,0.02293 -2.627236,0.0217 -3.159419,-0.199277 z m 4.652362,-3.932829 v -0.812778 h -1.583423 -1.583423 v 0.812778 0.812778 h 1.583423 1.583423 z m 17.55336,0 v -0.812778 h -1.583421 -1.583424 v 0.812778 0.812778 h 1.583424 1.583421 z m 3.619249,-6.998923 V 50.817016 H 35.006808 21.027456 v 2.844722 2.844722 h 13.979352 13.979351 z m -2.98588,-6.275972 c 0,-0.04941 -0.604599,-1.400647 -1.343553,-3.002762 -1.525408,-3.307216 -1.712085,-3.583686 -2.539336,-3.760762 -0.653946,-0.139979 -13.567219,-0.139979 -14.221165,0 -0.827844,0.177201 -1.013966,0.453074 -2.539365,3.763862 -0.738939,1.603822 -1.343523,2.955065 -1.343523,3.002765 0,0.05495 4.027613,0.08672 10.993471,0.08672 7.229362,0 10.993471,-0.03076 10.993471,-0.08983 z"
       id="path3407" />
    <path
       style="fill:#6563ff;fill-opacity:1;fill-rule:evenodd;stroke:#000000;stroke-width:0.0109378"
       d="m 26.184886,53.661738 v -1.67071 h 1.583423 1.583421 v 1.67071 1.670711 h -1.583421 -1.583423 z"
       id="path3409" />
    <path
       style="fill:#6563ff;fill-opacity:1;fill-rule:evenodd;stroke:#000000;stroke-width:0.0109378"
       d="m 40.661884,53.661738 v -1.67071 h 1.583422 1.583423 v 1.67071 1.670711 h -1.583423 -1.583422 z"
       id="path3411" />
    <path
       style="fill:#6563ff;fill-opacity:1;fill-rule:evenodd;stroke:#000000;stroke-width:0.0109378"
       d="M 5.1047466,42.48604 5.1067356,20.247529 16.792287,14.242002 C 34.143748,5.3246089 34.903603,4.9387239 35.063779,4.9630081 c 0.0811,0.012296 6.829073,3.4563425 14.995497,7.6534369 l 14.848042,7.631084 0.0018,22.238511 0.0018,22.238511 H 60.29656 55.682265 L 55.659397,48.491566 55.636531,32.258583 H 35.006808 14.377083 l -0.02286,16.232983 -0.02287,16.232985 H 9.7170545 5.1027576 Z m 6.0602544,1.828751 0.04524,-17.203803 0.304623,-0.704962 c 0.727663,-1.683972 2.206406,-2.918959 3.851512,-3.216629 0.761261,-0.137743 38.531804,-0.136292 39.278672,0.0016 1.654686,0.305303 3.127186,1.5338 3.853703,3.215118 l 0.304622,0.704964 0.04524,17.203804 0.04524,17.203802 h 1.402459 1.402461 l 0.02086,-13.681764 c 0.01152,-7.52497 -0.0089,-16.384235 -0.04524,-19.687258 L 61.608303,22.14413 59.662954,21.146967 C 58.593004,20.598476 53.788451,18.134085 48.986159,15.670492 44.183867,13.206897 39.072938,10.588973 37.628537,9.8528802 L 35.002355,8.5145299 26.680308,12.775803 c -4.577127,2.343699 -10.561459,5.411437 -13.298517,6.817196 l -4.9764681,2.555924 -0.046836,2.932576 c -0.074473,4.663024 -0.098664,36.352076 -0.027805,36.422801 0.035249,0.03519 0.6772104,0.05278 1.4265837,0.03912 L 11.11976,61.518583 Z M 55.649952,28.914816 c 0.02914,-0.07579 0.0097,-0.429112 -0.04327,-0.785151 -0.1104,-0.74243 -0.417173,-1.260522 -0.921447,-1.556197 -0.311203,-0.182469 -0.444634,-0.185554 -9.951684,-0.230103 -5.299939,-0.02483 -14.013282,-0.02483 -19.362987,0 -9.598252,0.04456 -9.730898,0.0476 -10.042163,0.230103 -0.504275,0.295675 -0.811044,0.813767 -0.921448,1.556197 -0.05294,0.356039 -0.07242,0.709357 -0.04327,0.785151 0.04728,0.122981 2.268533,0.13781 20.643144,0.13781 18.374612,0 20.595864,-0.01483 20.643146,-0.13781 z"
       id="path3413" />
    <path
       style="fill:#6563ff;fill-opacity:1;fill-rule:evenodd;stroke:#000000;stroke-width:0.0109378"
       d="m 61.607204,46.888588 c 10e-7,-7.996834 0.01068,-11.254902 0.0237,-7.240153 0.01303,4.014747 0.01303,10.55761 -3e-6,14.539696 -0.01304,3.982083 -0.0237,0.69729 -0.0237,-7.299543 z"
       id="path3415" />
  </g>
</svg>
