<svg width="20" height="20" xmlns="http://www.w3.org/2000/svg">
    <g stroke="#FFF" fill="none" fill-rule="evenodd">
        <g stroke-linecap="round">
            <path d="m15.303.954-4.512 4.513a1 1 0 0 0-.242 1.023l.158.474a1.663 1.663 0 0 1-.495 1.789L2.68 15.209A1.852 1.852 0 1 0 5.29 17.82l6.456-7.532a1.663 1.663 0 0 1 1.789-.495l.474.158a1 1 0 0 0 1.023-.242l4.513-4.512h0M12.475 6.61l4.243-4.242M13.89 8.025l4.242-4.243"/>
        </g>
        <path d="M10 8.5 8.43 7.003a1 1 0 0 1-.309-.724v-.986c0-.888-.428-1.72-1.15-2.236L4.799 1.506a2.36 2.36 0 0 0-3.293 3.293l1.55 2.172a2.748 2.748 0 0 0 2.237 1.15h.986a1 1 0 0 1 .724.31L8.5 10M10.5 12l5.538 5.964a1.363 1.363 0 1 0 1.926-1.926L12 10.5"/>
    </g>
</svg>
