<svg width="20" height="20" xmlns="http://www.w3.org/2000/svg">
    <g stroke="#FFF" fill="none" fill-rule="evenodd">
        <path stroke-linecap="round" d="M.5 17.5h19M6 17.5v-11"/>
        <path d="M8.15 5.005a2 2 0 0 1 1.302 3.37A3 3 0 1 1 6 13.236a3 3 0 1 1-3.452-4.862A2 2 0 0 1 4 5h.269l-.018-.031a1.988 1.988 0 0 1-.245-.82L4 4a2 2 0 1 1 3.732 1.001L8 5z" stroke-linejoin="round"/>
        <path stroke-linecap="round" d="M4.5 7.5 6 9l1.5-1.5M3.5 10.5l2.5 2 2.5-2M15.5 17.5v-2"/>
        <path stroke-linecap="round" stroke-linejoin="round" d="M12 15.5h7.5L17 12h1.5l-2-2.5h1l-2-4-2 4h1l-2 2.5H14z"/>
    </g>
</svg>
