<svg width="87" height="77" xmlns="http://www.w3.org/2000/svg" xmlns:xlink="http://www.w3.org/1999/xlink" xml:space="preserve" overflow="hidden"><defs><clipPath id="clip0"><rect x="481" y="1100" width="87" height="77"/></clipPath></defs><g clip-path="url(#clip0)" transform="translate(-481 -1100)"><path d="M497 1148C489.268 1148 483 1154.04 483 1161.5 483 1168.96 489.268 1175 497 1175 504.732 1175 511.001 1168.96 511.001 1161.5 511.001 1154.04 504.732 1148 497 1148ZM497 1153.26C499.171 1153.25 500.937 1154.95 500.943 1157.04 500.949 1159.13 499.194 1160.84 497.022 1160.84 494.851 1160.85 493.086 1159.15 493.08 1157.06 493.08 1157.05 493.08 1157.05 493.08 1157.04 493.086 1154.95 494.838 1153.27 497 1153.26ZM504.84 1168.44 489.16 1168.44 489.16 1165.56C489.175 1164.97 489.462 1164.42 489.944 1164.05 491.107 1163.24 492.401 1162.63 493.774 1162.25 494.827 1161.95 495.915 1161.79 497.011 1161.77 498.109 1161.78 499.199 1161.94 500.248 1162.25 501.637 1162.59 502.94 1163.21 504.079 1164.05 504.561 1164.42 504.848 1164.97 504.863 1165.56Z" fill="#000000" fill-rule="evenodd" fill-opacity="1"/><path d="M515.505 1146 521 1136.52C519.571 1135.82 518.217 1134.98 516.96 1134L511 1144.27C512.57 1144.66 514.084 1145.24 515.505 1146Z" fill="#000000" fill-rule="evenodd" fill-opacity="1"/><path d="M536 1164C535.857 1163.17 535.783 1162.34 535.779 1161.5 535.78 1161 535.808 1160.5 535.863 1160L525.137 1160C525.192 1160.5 525.22 1161 525.221 1161.5 525.217 1162.34 525.143 1163.17 525 1164Z" fill="#000000" fill-rule="evenodd" fill-opacity="1"/><path d="M544.729 1146C546.068 1145.2 547.502 1144.56 549 1144.1L543.014 1134C541.766 1134.95 540.421 1135.77 539 1136.44Z" fill="#000000" fill-rule="evenodd" fill-opacity="1"/><path d="M507 1148C499.268 1148 493 1154.04 493 1161.5 493 1168.96 499.268 1175 507 1175 514.732 1175 521 1168.96 521 1161.5 521 1154.04 514.732 1148 507 1148ZM507 1153.26C509.171 1153.25 510.937 1154.95 510.943 1157.04 510.949 1159.13 509.194 1160.84 507.022 1160.84 504.851 1160.85 503.086 1159.15 503.08 1157.06 503.08 1157.05 503.08 1157.05 503.08 1157.04 503.086 1154.95 504.838 1153.27 507 1153.26ZM514.84 1168.44 499.16 1168.44 499.16 1165.56C499.175 1164.97 499.462 1164.42 499.944 1164.05 501.107 1163.24 502.401 1162.63 503.774 1162.25 504.827 1161.95 505.915 1161.79 507.011 1161.77 508.109 1161.78 509.199 1161.94 510.248 1162.25 511.637 1162.59 512.94 1163.21 514.079 1164.05 514.561 1164.42 514.848 1164.97 514.863 1165.56Z" fill="#000000" fill-rule="evenodd" fill-opacity="1"/><path d="M547 1118C547 1108.61 539.389 1101 530 1101 520.611 1101 513 1108.61 513 1118 513 1127.39 520.611 1135 530 1135 539.389 1135 547 1127.39 547 1118ZM529.967 1107.58C532.602 1107.58 534.738 1109.72 534.738 1112.35 534.738 1114.99 532.602 1117.12 529.967 1117.12 527.332 1117.12 525.196 1114.99 525.196 1112.35 525.202 1109.72 527.334 1107.59 529.967 1107.58ZM539.487 1126.71 520.436 1126.71 520.436 1123.05C520.45 1122.3 520.801 1121.6 521.39 1121.14 522.796 1120.12 524.365 1119.36 526.029 1118.88 527.309 1118.5 528.634 1118.3 529.967 1118.29 531.298 1118.29 532.621 1118.49 533.894 1118.88 535.578 1119.32 537.159 1120.08 538.544 1121.14 539.127 1121.6 539.473 1122.3 539.487 1123.05Z" fill="#000000" fill-rule="evenodd" fill-opacity="1"/><path d="M554 1148C546.268 1148 540 1154.04 540 1161.5 540 1168.96 546.268 1175 554 1175 561.732 1175 568 1168.96 568 1161.5 568 1154.04 561.732 1148 554 1148ZM554 1153.26C556.171 1153.25 557.937 1154.95 557.942 1157.04 557.949 1159.13 556.193 1160.84 554.022 1160.84 551.851 1160.85 550.086 1159.15 550.08 1157.06 550.08 1157.05 550.08 1157.05 550.08 1157.04 550.086 1154.95 551.838 1153.27 554 1153.26ZM561.84 1168.44 546.16 1168.44 546.16 1165.56C546.175 1164.97 546.462 1164.42 546.944 1164.05 548.107 1163.24 549.401 1162.63 550.774 1162.25 551.827 1161.95 552.915 1161.79 554.011 1161.77 555.109 1161.78 556.199 1161.94 557.248 1162.25 558.637 1162.59 559.94 1163.21 561.078 1164.05 561.56 1164.42 561.848 1164.97 561.862 1165.56Z" fill="#000000" fill-rule="evenodd" fill-opacity="1"/></g></svg>