<svg width="92" height="96" xmlns="http://www.w3.org/2000/svg" xmlns:xlink="http://www.w3.org/1999/xlink" xml:space="preserve" overflow="hidden"><defs><clipPath id="clip0"><rect x="485" y="1517" width="92" height="96"/></clipPath></defs><g clip-path="url(#clip0)" transform="translate(-485 -1517)"><path d="M553.677 1581.07C553.376 1581.08 553.088 1581.19 552.865 1581.39 548.531 1584.55 544.409 1587.99 540.527 1591.67 538.969 1593.19 537.559 1594.58 536.26 1595.97 534.84 1593.35 534.096 1590.43 534.093 1587.47 533.898 1577.91 541.665 1570.01 551.442 1569.82 560.552 1570.05 575 1566 575 1566 575 1581.53 573.33 1595.37 560.055 1602.88 557.457 1604.41 554.477 1605.22 551.442 1605.21 547.273 1605.22 543.25 1603.71 540.154 1600.98 536.87 1604.57 534.658 1607.6 534.658 1609L531 1609C531 1606.86 532.829 1603.83 535.651 1600.47 535.967 1600.1 536.644 1599.37 536.644 1599.37L554.976 1582.38C555.013 1581.69 554.473 1581.11 553.77 1581.07 553.739 1581.07 553.708 1581.07 553.677 1581.07Z" fill="#000000" fill-rule="evenodd" fill-opacity="1"/><path d="M496.887 1590.09C497.755 1591.73 499.416 1592.82 501.293 1592.99L522.001 1592.99 522.001 1602 501.293 1602C496.047 1601.91 491.248 1599.09 488.696 1594.6 486.251 1590.27 486.463 1584.96 489.248 1580.83L501.212 1560.55 493.32 1556.05 512.578 1551 517.732 1569.86 509.346 1565.14 497.336 1585.53C496.311 1586.84 496.137 1588.61 496.887 1590.09Z" fill="#000000" fill-rule="evenodd" fill-opacity="1"/><path d="M513 1543.74 522.467 1526.16C524.95 1521.71 529.672 1518.97 534.784 1519 539.753 1519.1 544.257 1521.94 546.479 1526.36L558.242 1546.61 566.001 1542.11 560.933 1561 542.045 1555.96 550.279 1551.22 538.414 1530.85C537.77 1529.33 536.316 1528.3 534.659 1528.19 532.915 1528.28 531.336 1529.25 530.474 1530.76L520.996 1548.34Z" fill="#000000" fill-rule="evenodd" fill-opacity="1"/></g></svg>