<?xml version="1.0" encoding="UTF-8"?>
<svg overflow="hidden" viewBox="0 0 34 34" xml:space="preserve" xmlns="http://www.w3.org/2000/svg"><defs><clipPath id="clip0"><rect x="210" y="226" width="34" height="34"/></clipPath><clipPath id="clip1"><rect x="211" y="227" width="33" height="33"/></clipPath><clipPath id="clip2"><rect x="211" y="227" width="33" height="33"/></clipPath><clipPath id="clip3"><rect x="211" y="227" width="33" height="33"/></clipPath></defs>
    <g transform="translate(-210 -226)" clip-path="url(#clip0)"><g clip-path="url(#clip1)"><g clip-path="url(#clip2)"><g clip-path="url(#clip3)"><path d="m231.38 239.82c-1.443 0-2.578-1.169-2.578-2.578 0-1.41 1.169-2.578 2.578-2.578 1.444 0 2.578 1.168 2.578 2.578 0 1.409-1.168 2.578-2.578 2.578zm5.81-4.194c-0.138-0.481-0.31-0.928-0.55-1.34l0.55-1.616-1.238-1.238-1.615 0.55c-0.413-0.24-0.86-0.412-1.341-0.55l-0.756-1.512h-1.719l-0.756 1.512c-0.481 0.138-0.928 0.31-1.341 0.55l-1.616-0.55-1.237 1.238 0.55 1.616c-0.241 0.412-0.413 0.859-0.55 1.34l-1.513 0.756v1.719l1.513 0.756c0.137 0.482 0.309 0.929 0.55 1.341l-0.55 1.616 1.203 1.203 1.616-0.55c0.412 0.24 0.859 0.412 1.34 0.55l0.757 1.512h1.718l0.757-1.512c0.481-0.138 0.928-0.31 1.34-0.55l1.616 0.55 1.237-1.203-0.55-1.616c0.241-0.412 0.447-0.894 0.585-1.341l1.512-0.756v-1.719l-1.512-0.756z"/><path d="m223.62 252.33c-1.444 0-2.578-1.168-2.578-2.578 0-1.444 1.168-2.578 2.578-2.578 1.443 0 2.578 1.169 2.578 2.578 0 1.41-1.135 2.578-2.578 2.578zm5.259-5.534 0.55-1.616-1.237-1.237-1.616 0.55c-0.413-0.241-0.894-0.413-1.341-0.55l-0.756-1.513h-1.719l-0.756 1.513c-0.481 0.137-0.928 0.309-1.341 0.55l-1.615-0.55-1.203 1.203 0.515 1.616c-0.24 0.412-0.412 0.893-0.55 1.34l-1.512 0.757v1.718l1.512 0.756c0.138 0.482 0.31 0.929 0.55 1.341l-0.515 1.616 1.203 1.203 1.615-0.516c0.413 0.241 0.86 0.413 1.341 0.55l0.756 1.513h1.719l0.756-1.513c0.481-0.137 0.928-0.309 1.341-0.55l1.616 0.55 1.203-1.237-0.516-1.582c0.241-0.412 0.413-0.859 0.55-1.34l1.513-0.756v-1.719l-1.513-0.756c-0.137-0.482-0.309-0.929-0.55-1.341z"/></g></g></g></g></svg>
