<svg width="34" height="33" xmlns="http://www.w3.org/2000/svg" xmlns:xlink="http://www.w3.org/1999/xlink" xml:space="preserve" overflow="hidden"><defs><clipPath id="clip0"><rect x="210" y="296" width="34" height="33"/></clipPath><clipPath id="clip1"><rect x="211" y="296" width="33" height="33"/></clipPath><clipPath id="clip2"><rect x="211" y="296" width="33" height="33"/></clipPath><clipPath id="clip3"><rect x="211" y="296" width="33" height="33"/></clipPath></defs><g clip-path="url(#clip0)" transform="translate(-210 -296)"><g clip-path="url(#clip1)"><g clip-path="url(#clip2)"><g clip-path="url(#clip3)"><path d="M232.278 317.45C234.959 314.872 235.097 310.609 232.553 307.859 235.269 309.269 237.503 311.434 238.809 312.878 237.434 314.219 235.097 316.212 232.278 317.45ZM218.769 310.369C219.903 309.406 221.106 308.581 222.413 307.894 219.903 310.644 220.041 314.872 222.722 317.45 219.903 316.212 217.531 314.219 216.191 312.878 216.981 311.984 217.841 311.159 218.769 310.369ZM227.5 318C224.475 318 222 315.525 222 312.5 222 309.475 224.475 307 227.5 307 230.525 307 233 309.475 233 312.5 233 315.525 230.525 318 227.5 318ZM240.872 311.916C238.878 309.578 233.653 304.25 227.5 304.25 221.347 304.25 216.122 309.578 214.128 311.916 213.613 312.534 213.647 313.394 214.197 313.978 216.225 316.109 221.416 320.75 227.5 320.75 233.584 320.75 238.775 316.109 240.837 313.978 241.353 313.428 241.387 312.534 240.872 311.916Z" fill="#000000" fill-rule="nonzero" fill-opacity="1"/><path d="M230.938 312.5C230.938 314.398 229.398 315.938 227.5 315.938 225.602 315.938 224.062 314.398 224.062 312.5 224.062 310.602 225.602 309.062 227.5 309.062 229.398 309.062 230.938 310.602 230.938 312.5Z" fill="#000000" fill-rule="nonzero" fill-opacity="1"/></g></g></g></g></svg>