<svg width="33" height="33" xmlns="http://www.w3.org/2000/svg" xmlns:xlink="http://www.w3.org/1999/xlink" xml:space="preserve" overflow="hidden"><defs><clipPath id="clip0"><rect x="176" y="93" width="33" height="33"/></clipPath><clipPath id="clip1"><rect x="177" y="94" width="32" height="32"/></clipPath><clipPath id="clip2"><rect x="177" y="94" width="32" height="32"/></clipPath><clipPath id="clip3"><rect x="177" y="94" width="32" height="32"/></clipPath></defs><g clip-path="url(#clip0)" transform="translate(-176 -93)"><g clip-path="url(#clip1)"><g clip-path="url(#clip2)"><g clip-path="url(#clip3)"><path d="M201 117.867 196.437 110.593C196.355 110.46 196.21 110.379 196.053 110.38 195.896 110.38 195.75 110.461 195.667 110.593L194.333 112.733 197.193 117.36C197.435 117.726 197.487 118.186 197.333 118.597L200.567 118.597C200.831 118.61 201.057 118.406 201.07 118.141 201.075 118.045 201.05 117.949 201 117.867Z" fill="#000000" fill-rule="nonzero" fill-opacity="1"/><path d="M196.033 117.91 188.783 106.113C188.69 105.993 188.545 105.925 188.393 105.93L188.333 105.93 188.273 105.93C188.121 105.925 187.976 105.993 187.883 106.113L180.633 117.91C180.531 118.054 180.516 118.243 180.597 118.4 180.678 118.543 180.838 118.621 181 118.597L195.667 118.597C195.829 118.621 195.989 118.543 196.07 118.4 196.15 118.243 196.136 118.054 196.033 117.91ZM189.547 111.64 188.393 112.667 187.24 111.64 185.333 112.793 188.333 107.93 191.253 112.667Z" fill="#000000" fill-rule="nonzero" fill-opacity="1"/><path d="M185 106.667C185 107.219 184.552 107.667 184 107.667 183.448 107.667 183 107.219 183 106.667 183 106.114 183.448 105.667 184 105.667 184.552 105.667 185 106.114 185 106.667Z" fill="#000000" fill-rule="nonzero" fill-opacity="1"/><path d="M208 98.3333 181.333 98.3333 181.333 102 177.667 102 177.667 122.597 204.333 122.597 204.333 118.93 208 118.93ZM202.333 120.667 179.667 120.667 179.667 103.93 202.333 103.93ZM206 117 204.333 117 204.333 102 183.333 102 183.333 100.333 206 100.333Z" fill="#000000" fill-rule="nonzero" fill-opacity="1"/></g></g></g></g></svg>