<svg width="33" height="34" xmlns="http://www.w3.org/2000/svg" xmlns:xlink="http://www.w3.org/1999/xlink" xml:space="preserve" overflow="hidden"><defs><clipPath id="clip0"><rect x="176" y="218" width="33" height="34"/></clipPath><clipPath id="clip1"><rect x="177" y="219" width="32" height="32"/></clipPath><clipPath id="clip2"><rect x="177" y="219" width="32" height="32"/></clipPath><clipPath id="clip3"><rect x="177" y="219" width="32" height="32"/></clipPath></defs><g clip-path="url(#clip0)" transform="translate(-176 -218)"><g clip-path="url(#clip1)"><g clip-path="url(#clip2)"><g clip-path="url(#clip3)"><path d="M202.333 239 183.667 239 183.667 227.667 202.333 227.667ZM204.333 227C204.333 226.264 203.736 225.667 203 225.667L183 225.667C182.264 225.667 181.667 226.264 181.667 227L181.667 241 204.333 241Z" fill="#000000" fill-rule="nonzero" fill-opacity="1"/><path d="M195 242.333 195 242.667C195.011 242.839 194.881 242.989 194.708 243 194.694 243.001 194.68 243.001 194.667 243L191.333 243C191.161 243.011 191.011 242.881 191 242.708 190.999 242.694 190.999 242.68 191 242.667L191 242.333 177.667 242.333 177.667 243C177.667 243.736 178.264 244.333 179 244.333L207 244.333C207.736 244.333 208.333 243.736 208.333 243L208.333 242.333Z" fill="#000000" fill-rule="nonzero" fill-opacity="1"/><path d="M193 228.667C190.423 228.667 188.333 230.756 188.333 233.333 188.333 235.911 190.423 238 193 238 195.577 238 197.667 235.911 197.667 233.333 197.667 230.756 195.577 228.667 193 228.667ZM193.333 233.667 194.863 233.667C194.689 234.816 194.153 235.88 193.333 236.703ZM193.333 233 193.333 229.96C194.154 230.785 194.69 231.85 194.863 233ZM192.667 233 191.187 233C191.352 231.869 191.87 230.82 192.667 230ZM192.667 233.667 192.667 236.667C191.872 235.846 191.354 234.797 191.187 233.667ZM190.517 233 189.09 233C189.238 231.254 190.527 229.818 192.247 229.483 191.296 230.432 190.688 231.669 190.517 233ZM190.517 233.667C190.688 235 191.299 236.239 192.253 237.187 190.531 236.852 189.24 235.415 189.09 233.667ZM195.533 233.667 196.91 233.667C196.764 235.393 195.502 236.819 193.807 237.173 194.756 236.229 195.364 234.995 195.533 233.667ZM195.533 233C195.363 231.675 194.759 230.443 193.817 229.497 195.507 229.855 196.764 231.278 196.91 233Z" fill="#000000" fill-rule="nonzero" fill-opacity="1"/></g></g></g></g></svg>