<svg width="33" height="34" xmlns="http://www.w3.org/2000/svg" xmlns:xlink="http://www.w3.org/1999/xlink" xml:space="preserve" overflow="hidden"><defs><clipPath id="clip0"><rect x="176" y="386" width="33" height="34"/></clipPath><clipPath id="clip1"><rect x="177" y="387" width="32" height="32"/></clipPath><clipPath id="clip2"><rect x="177" y="387" width="32" height="32"/></clipPath><clipPath id="clip3"><rect x="177" y="387" width="32" height="32"/></clipPath></defs><g clip-path="url(#clip0)" transform="translate(-176 -386)"><g clip-path="url(#clip1)"><g clip-path="url(#clip2)"><g clip-path="url(#clip3)"><path d="M184.667 391.667 201.333 391.667 201.333 414.333 184.667 414.333 184.667 391.667ZM182.667 416.333 203.333 416.333 203.333 389.667 182.667 389.667 182.667 416.333Z" fill="#000000" fill-rule="nonzero" fill-opacity="1"/><path d="M193.667 394.667 199.333 394.667 199.333 396 193.667 396Z" fill="#000000" fill-rule="nonzero" fill-opacity="1"/><path d="M193.667 400 199.333 400 199.333 401.333 193.667 401.333Z" fill="#000000" fill-rule="nonzero" fill-opacity="1"/><path d="M193.667 410.667 199.333 410.667 199.333 412 193.667 412Z" fill="#000000" fill-rule="nonzero" fill-opacity="1"/><path d="M193.667 405.333 199.333 405.333 199.333 406.667 193.667 406.667Z" fill="#000000" fill-rule="nonzero" fill-opacity="1"/><path d="M191.6 393.933 190.667 393 188.467 395.2 187.6 394.333 186.667 395.267 188.467 397.067Z" fill="#000000" fill-rule="nonzero" fill-opacity="1"/><path d="M191.6 399.267 190.667 398.333 188.467 400.533 187.6 399.667 186.667 400.6 188.467 402.4Z" fill="#000000" fill-rule="nonzero" fill-opacity="1"/><path d="M191.6 404.6 190.667 403.667 188.467 405.867 187.6 405 186.667 405.933 188.467 407.733Z" fill="#000000" fill-rule="nonzero" fill-opacity="1"/><path d="M191.6 409.867 190.667 408.933 188.467 411.133 187.6 410.267 186.667 411.2 188.467 413Z" fill="#000000" fill-rule="nonzero" fill-opacity="1"/></g></g></g></g></svg>