<svg width="34" height="34" xmlns="http://www.w3.org/2000/svg" xmlns:xlink="http://www.w3.org/1999/xlink" xml:space="preserve" overflow="hidden"><defs><clipPath id="clip0"><rect x="176" y="556" width="34" height="34"/></clipPath><clipPath id="clip1"><rect x="177" y="556" width="33" height="34"/></clipPath><clipPath id="clip2"><rect x="177" y="556" width="33" height="34"/></clipPath><clipPath id="clip3"><rect x="177" y="556" width="33" height="34"/></clipPath></defs><g clip-path="url(#clip0)" transform="translate(-176 -556)"><g clip-path="url(#clip1)"><g clip-path="url(#clip2)"><g clip-path="url(#clip3)"><path d="M19.0197 13.4647 19.3119 12.5984 18.6519 11.9384 17.7856 12.2306C17.5604 12.1037 17.3202 12.0056 17.0706 11.9384L16.665 11.1306 15.7437 11.1306 15.3347 11.9419C15.0842 12.0096 14.8429 12.1077 14.6163 12.2341L13.75 11.9419 13.09 12.6019 13.365 13.4681C13.2331 13.6921 13.1314 13.9325 13.0625 14.1831L12.2512 14.5887 12.2512 15.4963 13.0625 15.9053C13.1294 16.155 13.2275 16.3953 13.3547 16.6203L13.0625 17.4866 13.75 18.1466 14.6163 17.8509C14.8413 17.979 15.0815 18.0783 15.3312 18.1466L15.7369 18.9544 16.6581 18.9544 17.0672 18.1603C17.3126 18.0936 17.5492 17.9978 17.7719 17.875L18.6347 18.1706 19.2947 17.5072 19.0025 16.6444C19.1338 16.4176 19.2388 16.1766 19.3153 15.9259L20.1231 15.5203 20.1231 14.5887 19.3119 14.1797C19.2463 13.9296 19.148 13.6892 19.0197 13.4647ZM16.2009 16.4312C15.4416 16.4312 14.8259 15.8156 14.8259 15.0562 14.8259 14.2969 15.4416 13.6812 16.2009 13.6812 16.9557 13.6923 17.5649 14.3015 17.5759 15.0562 17.5759 15.8156 16.9603 16.4312 16.2009 16.4312Z" fill="#000000" fill-rule="nonzero" fill-opacity="1" transform="matrix(1 0 0 1.0303 177 556)"/><path d="M19.1538 25.7091 13.2378 25.7091C12.6901 25.7413 12.2723 26.2115 12.3045 26.7592 12.3341 27.2619 12.7351 27.6629 13.2378 27.6925L19.1538 27.6925C19.7014 27.6602 20.1193 27.1901 20.0871 26.6424 20.0574 26.1397 19.6564 25.7387 19.1538 25.7091Z" fill="#000000" fill-rule="nonzero" fill-opacity="1" transform="matrix(1 0 0 1.0303 177 556)"/><path d="M16.1975 31.0509C17.3199 31.0491 18.253 30.1863 18.3425 29.0675L14.0491 29.0675C14.1403 30.1869 15.0745 31.0493 16.1975 31.0509Z" fill="#000000" fill-rule="nonzero" fill-opacity="1" transform="matrix(1 0 0 1.0303 177 556)"/><path d="M24.7809 15.2866 24.7809 14.9909C24.6933 10.2989 20.88 6.53276 16.1872 6.50375 11.4944 6.53276 7.68103 10.2989 7.59344 14.9909L7.59344 15.2866C7.62486 16.3042 7.82705 17.3094 8.19156 18.26 8.53947 19.1569 9.04468 19.9846 9.68344 20.7041 10.4706 21.56 11.33 23.2272 11.6944 23.9697 11.8058 24.194 12.0352 24.3353 12.2856 24.3341L20.0887 24.3341C20.3392 24.3353 20.5686 24.194 20.68 23.9697 21.0444 23.2272 21.9038 21.5634 22.6909 20.7041 23.3297 19.9846 23.8349 19.1569 24.1828 18.26 24.5473 17.3094 24.7495 16.3042 24.7809 15.2866ZM22.8009 15.2556C22.7765 16.0455 22.6221 16.826 22.3438 17.5656 22.0827 18.2317 21.7056 18.8462 21.23 19.3806 20.467 20.2889 19.8128 21.2834 19.2809 22.3438L13.0934 22.3438C12.5676 21.2807 11.9193 20.2827 11.1616 19.3703 10.6859 18.8359 10.3088 18.2214 10.0478 17.5553 9.76367 16.8167 9.60338 16.0362 9.57344 15.2453L9.57344 14.9978C9.635 11.3884 12.567 8.48846 16.1769 8.46656 19.7867 8.48846 22.7187 11.3884 22.7803 14.9978Z" fill="#000000" fill-rule="nonzero" fill-opacity="1" transform="matrix(1 0 0 1.0303 177 556)"/><path d="M16.2628 5.15625C16.6425 5.15625 16.9503 4.84846 16.9503 4.46875L16.9503 2.0625C16.9503 1.6828 16.6425 1.375 16.2628 1.375 15.8831 1.375 15.5753 1.6828 15.5753 2.0625L15.5753 4.46875C15.5753 4.84846 15.8831 5.15625 16.2628 5.15625Z" fill="#000000" fill-rule="nonzero" fill-opacity="1" transform="matrix(1 0 0 1.0303 177 556)"/><path d="M8.10563 8.17781C8.37378 8.44436 8.80684 8.44436 9.075 8.17781 9.34154 7.90965 9.34154 7.4766 9.075 7.20844L7.37344 5.5C7.09163 5.24556 6.65689 5.26773 6.40241 5.54953 6.1655 5.81195 6.16622 6.21125 6.40406 6.47281Z" fill="#000000" fill-rule="nonzero" fill-opacity="1" transform="matrix(1 0 0 1.0303 177 556)"/><path d="M23.9456 8.51125C24.1288 8.51139 24.3046 8.43838 24.4338 8.30844L26.1319 6.58969C26.3534 6.28128 26.2829 5.85172 25.9745 5.63025 25.7312 5.45548 25.4027 5.45841 25.1625 5.6375L23.4437 7.35625C23.1772 7.62441 23.1772 8.05747 23.4437 8.32562 23.5791 8.45274 23.7601 8.51971 23.9456 8.51125Z" fill="#000000" fill-rule="nonzero" fill-opacity="1" transform="matrix(1 0 0 1.0303 177 556)"/><path d="M5.58594 14.2656 3.17969 14.2656C2.79999 14.2656 2.49219 14.5734 2.49219 14.9531 2.49219 15.3328 2.79999 15.6406 3.17969 15.6406L5.58594 15.6406C5.96564 15.6406 6.27344 15.3328 6.27344 14.9531 6.27344 14.5734 5.96564 14.2656 5.58594 14.2656Z" fill="#000000" fill-rule="nonzero" fill-opacity="1" transform="matrix(1 0 0 1.0303 177 556)"/><path d="M8.10563 21.7044 6.40406 23.4231C6.11566 23.6701 6.08207 24.1041 6.32906 24.3925 6.57604 24.6809 7.01006 24.7145 7.29843 24.4675 7.32535 24.4445 7.35041 24.4194 7.37344 24.3925L9.075 22.6737C9.32198 22.3853 9.2884 21.9514 8.99999 21.7044 8.74263 21.484 8.36302 21.484 8.10563 21.7044Z" fill="#000000" fill-rule="nonzero" fill-opacity="1" transform="matrix(1 0 0 1.0303 177 556)"/><path d="M24.4338 21.5737C24.1793 21.2919 23.7446 21.2698 23.4627 21.5242 23.1809 21.7787 23.1587 22.2134 23.4132 22.4952 23.4283 22.5119 23.4443 22.528 23.4609 22.5431L25.1797 24.2619C25.4227 24.5536 25.8562 24.5931 26.148 24.3501 26.4397 24.1071 26.4792 23.6736 26.2362 23.3818 26.2032 23.3423 26.1659 23.3066 26.125 23.2753Z" fill="#000000" fill-rule="nonzero" fill-opacity="1" transform="matrix(1 0 0 1.0303 177 556)"/><path d="M29.2188 14.2416 26.8125 14.2416C26.4328 14.2416 26.125 14.5494 26.125 14.9291 26.125 15.3088 26.4328 15.6166 26.8125 15.6166L29.2188 15.6166C29.5985 15.6166 29.9062 15.3088 29.9062 14.9291 29.9062 14.5494 29.5985 14.2416 29.2188 14.2416Z" fill="#000000" fill-rule="nonzero" fill-opacity="1" transform="matrix(1 0 0 1.0303 177 556)"/></g></g></g></g></svg>