<svg width="105" height="59" xmlns="http://www.w3.org/2000/svg" xmlns:xlink="http://www.w3.org/1999/xlink" xml:space="preserve" overflow="hidden"><defs><clipPath id="clip0"><rect x="490" y="1879" width="105" height="59"/></clipPath></defs><g clip-path="url(#clip0)" transform="translate(-490 -1879)"><path d="M540.198 1886.86 540.198 1891.36C540.985 1891.36 541.659 1891.25 542.445 1891.25 543.232 1891.25 543.906 1891.25 544.693 1891.36L544.693 1886.86C549.076 1887.09 553.233 1887.99 557.054 1889.45L555.369 1893.5C556.83 1894.06 558.178 1894.63 559.527 1895.3L561.212 1891.14C563.347 1892.15 565.258 1893.39 567.168 1894.74L572 1889.9C563.797 1883.71 553.571 1880 542.445 1880 515.138 1880 493 1902.16 493 1929.5L493 1934 499.742 1934 499.742 1929.5C499.742 1924.89 500.529 1920.39 501.878 1916.23L506.036 1917.91C506.485 1916.45 507.047 1915.1 507.609 1913.75L503.451 1912.06C505.137 1908.24 507.496 1904.64 510.193 1901.6L513.34 1904.75C514.352 1903.63 515.363 1902.5 516.486 1901.49L513.34 1898.34C516.374 1895.52 519.858 1893.05 523.679 1891.14L525.364 1895.3C526.713 1894.63 528.061 1894.06 529.522 1893.5L527.837 1889.34C531.657 1887.88 535.815 1887.09 540.198 1886.86Z" fill="#000000" fill-rule="evenodd" fill-opacity="1"/><path d="M583.492 1901 578.861 1905.86C580.046 1907.78 581.123 1909.81 581.984 1911.85L578 1913.66C578.538 1915.01 579.077 1916.48 579.508 1917.84L583.492 1916.14C584.785 1920.33 585.539 1924.85 585.539 1929.48L585.539 1934 592 1934 592 1929.48C592 1918.86 588.877 1909.14 583.492 1901Z" fill="#000000" fill-rule="evenodd" fill-opacity="1"/><path d="M539.605 1928C539.38 1928.12 539.268 1928.34 539.043 1928.56 537.468 1930.47 537.693 1933.28 539.605 1934.96 541.518 1936.53 544.33 1936.31 546.017 1934.4L581 1893 539.605 1928Z" fill="#000000" fill-rule="evenodd" fill-opacity="1"/></g></svg>